<?xml version="1.0" encoding="UTF-8"?>
<svg width="23px" height="14px" viewBox="0 0 23 14" version="1.1" xmlns="http://www.w3.org/2000/svg" xmlns:xlink="http://www.w3.org/1999/xlink">
    <!-- Generator: Sketch 48.2 (47327) - http://www.bohemiancoding.com/sketch -->
    <title>filter_icon</title>
    <desc>Created with Sketch.</desc>
    <defs></defs>
    <g id="UC01_5_Notifications_bar" stroke="none" stroke-width="1" fill="none" fill-rule="evenodd" transform="translate(-981.000000, -85.000000)">
        <g id="Notifications" transform="translate(691.000000, 59.000000)" fill="#B2BCC9">
            <g id="filter_icon" transform="translate(290.000000, 21.000000)">
                <g>
                    <rect id="Path" opacity="0" x="0" y="0" width="23" height="23"></rect>
                    <path d="M0.75,7 L14,7 L14,8.5 L0.75,8.5 C0.335786438,8.5 5.07265313e-17,8.16421356 0,7.75 C-5.07265313e-17,7.33578644 0.335786438,7 0.75,7 Z M19,7 L22.25,7 C22.6642136,7 23,7.33578644 23,7.75 C23,8.16421356 22.6642136,8.5 22.25,8.5 L19,8.5 L19,7 Z M9,15.5 L22.25,15.5 C22.6642136,15.5 23,15.8357864 23,16.25 C23,16.6642136 22.6642136,17 22.25,17 L9,17 L9,15.5 Z M0.75,15.5 L4,15.5 L4,17 L0.75,17 C0.335786438,17 1.61748834e-16,16.6642136 1.11022302e-16,16.25 C6.02957711e-17,15.8357864 0.335786438,15.5 0.75,15.5 Z M15.75,5.30000305 L17.25,5.30000305 C17.6642136,5.30000305 18,5.63578949 18,6.05000305 L18,9.55000305 C18,9.96421661 17.6642136,10.3000031 17.25,10.3000031 L15.75,10.3000031 C15.3357864,10.3000031 15,9.96421661 15,9.55000305 L15,6.05000305 C15,5.63578949 15.3357864,5.30000305 15.75,5.30000305 Z M5.75,13.6999969 L7.25,13.6999969 C7.66421356,13.6999969 8,14.0357834 8,14.4499969 L8,17.9499969 C8,18.3642105 7.66421356,18.6999969 7.25,18.6999969 L5.75,18.6999969 C5.33578644,18.6999969 5,18.3642105 5,17.9499969 L5,14.4499969 C5,14.0357834 5.33578644,13.6999969 5.75,13.6999969 Z" id="Combined-Shape"></path>
                </g>
            </g>
        </g>
    </g>
</svg>