<?xml version="1.0" encoding="UTF-8"?>
<svg width="2px" height="14px" viewBox="0 0 2 14" version="1.1" xmlns="http://www.w3.org/2000/svg" xmlns:xlink="http://www.w3.org/1999/xlink">
    <g stroke="none" stroke-width="1" fill="none" fill-rule="evenodd">
        <g transform="translate(-308.000000, -704.000000)" fill="#C8CED7">
            <g transform="translate(0.000000, 693.000000)">
                <path d="M309,11 C309.552285,11 310,11.4477153 310,12 C310,12.5522847 309.552285,13 309,13 C308.447715,13 308,12.5522847 308,12 C308,11.4477153 308.447715,11 309,11 Z M309,17 C309.552285,17 310,17.4477153 310,18 C310,18.5522847 309.552285,19 309,19 C308.447715,19 308,18.5522847 308,18 C308,17.4477153 308.447715,17 309,17 Z M309,23 C309.552285,23 310,23.4477153 310,24 C310,24.5522847 309.552285,25 309,25 C308.447715,25 308,24.5522847 308,24 C308,23.4477153 308.447715,23 309,23 Z"></path>
            </g>
        </g>
    </g>
</svg>