<?xml version="1.0" encoding="UTF-8"?>
<svg width="32px" height="42px" viewBox="0 0 32 42" version="1.1" xmlns="http://www.w3.org/2000/svg" xmlns:xlink="http://www.w3.org/1999/xlink">
    <!-- Generator: Sketch 49.3 (51167) - http://www.bohemiancoding.com/sketch -->
    <title>Fill 163</title>
    <desc>Created with Sketch.</desc>
    <defs></defs>
    <g id="Page-1" stroke="none" stroke-width="1" fill="none" fill-rule="evenodd">
        <g id="uploads" transform="translate(-148.000000, -179.000000)" fill="#97A5BA">
            <g id="Drag-&amp;-drop" transform="translate(15.000000, 86.000000)">
                <path d="M137.148,108.456 C136.563,109.042 135.613,109.042 135.027,108.456 C134.734,108.163 134.588,107.779 134.588,107.395 C134.588,107.011 134.734,106.627 135.027,106.334 L147.652,93.709 C147.936,93.426 148.32,93.268 148.72,93.27 C149.12,93.272 149.503,93.434 149.784,93.719 L162.154,106.324 C162.733,106.914 162.726,107.864 162.134,108.445 C161.543,109.025 160.593,109.017 160.013,108.425 L150.183,98.409 L150.183,125.499 C150.183,126.328 149.512,126.999 148.683,126.999 C147.854,126.999 147.183,126.328 147.183,125.499 L147.183,98.422 L137.148,108.456 Z M162.676,131.032 C163.505,131.032 164.176,131.704 164.176,132.532 C164.176,133.361 163.505,134.032 162.676,134.032 L134.676,134.032 C133.848,134.032 133.176,133.361 133.176,132.532 C133.176,131.704 133.848,131.032 134.676,131.032 L162.676,131.032 Z" id="Fill-163"></path>
            </g>
        </g>
    </g>
</svg>