<?xml version="1.0" encoding="UTF-8"?>
<svg width="42px" height="42px" viewBox="0 0 42 42" version="1.1" xmlns="http://www.w3.org/2000/svg" xmlns:xlink="http://www.w3.org/1999/xlink">
    <defs>
        <rect id="path-1" x="0" y="0" width="42" height="42" rx="6.3"></rect>
    </defs>
    <g id="Artboard" stroke="none" stroke-width="1" fill="none" fill-rule="evenodd" transform="translate(-56.000000, -46.000000)">
        <g id="favicon" transform="translate(56.000000, 46.000000)">
            <mask id="mask-2" fill="white">
                <use xlink:href="#path-1"></use>
            </mask>
            <use id="Rectangle" fill="#FFFFFF" xlink:href="#path-1"></use>
            <g mask="url(#mask-2)" fill="#4686FF" fill-rule="nonzero" id="Shape">
                <g transform="translate(8.000000, 8.000000)">
                    <path d="M13,11 C5.71025,11 0,8.58427778 0,5.5 C0,2.41572222 5.71025,0 13,0 C20.28975,0 26,2.41572222 26,5.5 C26,8.58427778 20.28975,11 13,11 Z M13,1.22222222 C7.4659,1.22222222 1.3,2.97916667 1.3,5.5 C1.3,8.02083333 7.4659,9.77777778 13,9.77777778 C18.5341,9.77777778 24.7,8.02083333 24.7,5.5 C24.7,2.97916667 18.5341,1.22222222 13,1.22222222 Z"></path>
                    <path d="M13,16 C5.71025,16 0,13.5842778 0,10.5 L0,5.61111111 C0,5.27316667 0.29055,5 0.65,5 C1.00945,5 1.3,5.27316667 1.3,5.61111111 L1.3,10.5 C1.3,13.0208333 7.4659,14.7777778 13,14.7777778 C18.5341,14.7777778 24.7,13.0208333 24.7,10.5 L24.7,5.61111111 C24.7,5.27316667 24.99055,5 25.35,5 C25.70945,5 26,5.27316667 26,5.61111111 L26,10.5 C26,13.5842778 20.28975,16 13,16 Z"></path>
                    <path d="M13,21.5 C5.71025,21.5 0,19.0033684 0,15.8157895 L0,10.1315789 C0,9.78231579 0.29055,9.5 0.65,9.5 C1.00945,9.5 1.3,9.78231579 1.3,10.1315789 L1.3,15.8157895 C1.3,18.4210526 7.4659,20.2368421 13,20.2368421 C18.5341,20.2368421 24.7,18.4210526 24.7,15.8157895 L24.7,10.1315789 C24.7,9.78231579 24.99055,9.5 25.35,9.5 C25.70945,9.5 26,9.78231579 26,10.1315789 L26,15.8157895 C26,19.0033684 20.28975,21.5 13,21.5 Z"></path>
                    <path d="M13,27 C5.71025,27 0,24.5033684 0,21.3157895 L0,15.6315789 C0,15.2823158 0.29055,15 0.65,15 C1.00945,15 1.3,15.2823158 1.3,15.6315789 L1.3,21.3157895 C1.3,23.9210526 7.4659,25.7368421 13,25.7368421 C18.5341,25.7368421 24.7,23.9210526 24.7,21.3157895 L24.7,15.6315789 C24.7,15.2823158 24.99055,15 25.35,15 C25.70945,15 26,15.2823158 26,15.6315789 L26,21.3157895 C26,24.5033684 20.28975,27 13,27 Z"></path>
                </g>
            </g>
        </g>
    </g>
</svg>