<?xml version="1.0" encoding="utf-8"?>
<!-- Generator: Adobe Illustrator 22.1.0, SVG Export Plug-In . SVG Version: 6.00 Build 0)  -->
<svg version="1.1" id="Слой_1" xmlns="http://www.w3.org/2000/svg" xmlns:xlink="http://www.w3.org/1999/xlink" x="0px" y="0px"
	 viewBox="0 0 800 800" style="enable-background:new 0 0 800 800;" xml:space="preserve">
<style type="text/css">
	.st0{fill:url(#SVGID_1_);}
	.st1{fill:#FFFFFF;}
</style>
<g>
	<linearGradient id="SVGID_1_" gradientUnits="userSpaceOnUse" x1="236.369" y1="113.1455" x2="724.8587" y2="959.2345">
		<stop  offset="0" style="stop-color:#33CCCC"/>
		<stop  offset="0.1103" style="stop-color:#33C2C2"/>
		<stop  offset="0.4313" style="stop-color:#33ACAC"/>
		<stop  offset="0.7347" style="stop-color:#339E9E"/>
		<stop  offset="1" style="stop-color:#339999"/>
	</linearGradient>
	<path class="st0" d="M672.2,790H132.4c-66,0-119.6-52.9-119.6-118.1V129.1C12.8,63.9,66.3,11,132.4,11h539.8
		c66,0,119.6,52.9,119.6,118.1v542.8C791.8,737.1,738.2,790,672.2,790z"/>
	<g>
		<path class="st1" d="M587.6,221.7H217c-21.4,0-38.8,21.4-38.8,47.8v15.9h448.2v-15.9C626.4,243.2,609,221.7,587.6,221.7z"/>
		<path class="st1" d="M178.2,366.8v164.6c0,26.4,17.4,47.8,38.8,47.8h370.6c21.4,0,38.8-21.4,38.8-47.8V366.8H178.2z M567.8,489.6
			c0,11.6-9.5,20.2-20.7,20.7c-11.2,0.5-20.7-9.9-20.7-20.7v-27.9c0-11.6,9.5-20.2,20.7-20.7c11.2-0.5,20.7,9.9,20.7,20.7V489.6z"/>
	</g>
</g>
</svg>
