<?xml version="1.0" encoding="utf-8"?>
<!-- Generator: Adobe Illustrator 22.1.0, SVG Export Plug-In . SVG Version: 6.00 Build 0)  -->
<svg version="1.1" id="Слой_1" xmlns="http://www.w3.org/2000/svg" xmlns:xlink="http://www.w3.org/1999/xlink" x="0px" y="0px"
	 viewBox="0 0 200 100" style="enable-background:new 0 0 200 100;" xml:space="preserve">
<style type="text/css">
	.st0{fill:url(#SVGID_1_);}
	.st1{fill:#FFFFFF;}
</style>
<linearGradient id="SVGID_1_" gradientUnits="userSpaceOnUse" x1="68.2799" y1="-4.8858" x2="161.6042" y2="156.7567">
	<stop  offset="0" style="stop-color:#33CCCC"/>
	<stop  offset="0.1103" style="stop-color:#33C2C2"/>
	<stop  offset="0.4313" style="stop-color:#33ACAC"/>
	<stop  offset="0.7347" style="stop-color:#339E9E"/>
	<stop  offset="1" style="stop-color:#339999"/>
</linearGradient>
<rect x="0" class="st0" width="200" height="100"/>
<g>
	<path class="st1" d="M131.7,19.4H68.3c-3.7,0-6.6,3.7-6.6,8.2v2.7h76.7v-2.7C138.3,23.1,135.3,19.4,131.7,19.4z"/>
	<path class="st1" d="M61.6,44.3v28.2c0,4.5,3,8.2,6.6,8.2h63.4c3.7,0,6.6-3.7,6.6-8.2V44.3H61.6z M128.3,65.2c0,2-1.6,3.5-3.5,3.5
		c-1.9,0.1-3.5-1.7-3.5-3.5v-4.8c0-2,1.6-3.5,3.5-3.5c1.9-0.1,3.5,1.7,3.5,3.5V65.2z"/>
</g>
</svg>
