<?xml version="1.0" encoding="UTF-8"?>
<svg width="32px" height="32px" viewBox="0 0 32 32" version="1.1" xmlns="http://www.w3.org/2000/svg" xmlns:xlink="http://www.w3.org/1999/xlink">
    <g id="Artboard" stroke="none" stroke-width="1" fill="none" fill-rule="evenodd" transform="translate(-9.000000, -9.000000)">
        <g id="arrow-nav" transform="translate(25.000000, 25.000000) scale(-1, 1) translate(-25.000000, -25.000000) translate(9.000000, 9.000000)">
            <g transform="translate(16.000000, 16.000000) scale(-1, 1) translate(-16.000000, -16.000000) ">
                <circle id="Oval-3" stroke="#FFFFFF" stroke-width="1.5" cx="16" cy="16" r="15.25"></circle>
                <polygon id="Rectangle-13" fill="#BBD4E6" fill-rule="nonzero" opacity="0" points="9 9 19 9 19 24 9 24"></polygon>
                <path d="M6.74948265,12.9163882 L13.5041202,20.4215411 C13.8735792,20.8320511 14.5058691,20.8653295 14.9163791,20.4958705 C14.9424415,20.4724143 14.9672523,20.4476035 14.9907085,20.4215411 L21.7453461,12.9163882 C22.1148051,12.5058782 22.0815267,11.8735883 21.6710167,11.5041293 C21.487392,11.3388671 21.2490937,11.2474235 21.002052,11.2474235 L7.49277679,11.2474235 C6.94049204,11.2474235 6.49277679,11.6951387 6.49277679,12.2474235 C6.49277679,12.4944652 6.58422041,12.7327635 6.74948265,12.9163882 Z" id="arow_back" fill="#FFFFFF" fill-rule="nonzero" transform="translate(14.247419, 16.000004) rotate(90.000000) translate(-14.247419, -16.000004) "></path>
            </g>
        </g>
    </g>
</svg>