<?xml version="1.0" encoding="UTF-8"?>
<svg width="15px" height="15px" viewBox="0 0 15 15" version="1.1" xmlns="http://www.w3.org/2000/svg" xmlns:xlink="http://www.w3.org/1999/xlink">
    <g stroke="none" stroke-width="1" fill="none" fill-rule="evenodd">
        <path d="M8.77203262,6.68835842 L11.1185749,6.68235372 C11.5557871,6.64548192 11.9505908,7.07126362 11.9874284,7.50437611 C12.0264931,7.94191033 11.707496,8.31754355 11.2641499,8.35193709 L8.72898524,8.33589237 C8.44142233,8.78388227 7.9683201,9.03961986 7.5,9 C6.55715116,8.93108081 5.94246184,8.20751386 6,7.5 C6.03335283,7.03751853 6.22354749,6.65389249 6.49230392,6.38984185 L6.47939985,3.63279109 C6.44164147,3.19777327 6.86623322,2.8059148 7.29890102,2.77017783 C7.73598211,2.73223466 8.11196641,3.05036279 8.1472615,3.49147745 L8.13592548,6.16109665 C8.40523258,6.28555098 8.62230623,6.47121232 8.77203262,6.68835842 Z M7.5,15 C3.35786438,15 0,11.6421356 0,7.5 C0,3.35786438 3.35786438,0 7.5,0 C11.6421356,0 15,3.35786438 15,7.5 C15,11.6421356 11.6421356,15 7.5,15 Z M1.5,7.5 C1.5,10.8074181 4.19183768,13.5 7.5,13.5 C10.8095458,13.5 13.5,10.8074181 13.5,7.5 C13.4996541,4.19223692 10.8091999,1.5 7.5,1.5 C4.19218354,1.5 1.5,4.19223692 1.5,7.5 Z" fill="#D3DAE2" fill-rule="nonzero"></path>
    </g>
</svg>