<?xml version="1.0" encoding="UTF-8"?>
<svg width="28px" height="18px" viewBox="0 0 28 18" version="1.1" xmlns="http://www.w3.org/2000/svg" xmlns:xlink="http://www.w3.org/1999/xlink">
    <!-- Generator: Sketch 52.3 (67297) - http://www.bohemiancoding.com/sketch -->
    <title>cloud</title>
    <desc>Created with Sketch.</desc>
    <g id="Page-1" stroke="none" stroke-width="1" fill="none" fill-rule="evenodd">
        <g id="cloud" fill="#4A89FC" fill-rule="nonzero">
            <path d="M0,12.25 C0,10.3099829 1.05659738,8.61143596 2.62684934,7.70262045 C2.7185429,3.43297748 6.20836379,0 10.5,0 C13.3293103,0 15.810131,1.49206006 17.198536,3.73225391 C17.7101805,3.58111687 18.2518673,3.5 18.8125,3.5 C21.248984,3.5 23.3276313,5.03207994 24.1376124,7.18541014 C26.363491,7.79402251 28,9.83094648 28,12.25 C28,15.1435951 25.6494262,17.5 22.7498463,17.5 L5.2501537,17.5 C2.35110571,17.5 0,15.1494949 0,12.25 Z M22.7259686,8.75 C22.5083281,6.78126356 20.839237,5.25 18.8125,5.25 C17.8874092,5.25 17.0368306,5.56902439 16.3647805,6.10305675 C15.6048099,3.58428665 13.2666154,1.75 10.5,1.75 C7.11725574,1.75 4.375,4.49225577 4.375,7.875 C4.375,8.20381721 4.40091068,8.52658266 4.45080165,8.84136601 C2.90306467,9.20287856 1.75,10.594573 1.75,12.25 C1.75,14.1829966 3.31985522,15.75 5.24723401,15.75 L22.752766,15.75 C24.684235,15.75 26.25,14.1790633 26.25,12.25 C26.25,10.3170034 24.6801447,8.75 22.752766,8.75 L22.7259686,8.75 Z" transform="translate(14.000000, 8.750000) scale(-1, 1) translate(-14.000000, -8.750000) "></path>
        </g>
    </g>
</svg>