<?xml version="1.0" encoding="UTF-8"?>
<svg width="17px" height="20px" viewBox="0 0 17 20" version="1.1" xmlns="http://www.w3.org/2000/svg" xmlns:xlink="http://www.w3.org/1999/xlink">
    <!-- Generator: Sketch 49.3 (51167) - http://www.bohemiancoding.com/sketch -->
    <title>doc_icn</title>
    <desc>Created with Sketch.</desc>
    <defs></defs>
    <g id="Page-1" stroke="none" stroke-width="1" fill="none" fill-rule="evenodd">
        <g id="files" transform="translate(-34.000000, -101.000000)" fill="#B2BCC9">
            <g id="doc" transform="translate(0.000000, 86.000000)">
                <path d="M43.2500606,21 L38.6353333,21 C38.2082727,21 37.8626061,20.665 37.8626061,20.25 C37.8626061,19.835 38.2082727,19.5 38.6353333,19.5 L43.2500606,19.5 C43.6771212,19.5 44.0227879,19.835 44.0227879,20.25 C44.0227879,20.665 43.6771212,21 43.2500606,21 Z M46.3018182,24.145 L38.6353333,24.145 C38.2082727,24.145 37.8626061,23.805 37.8626061,23.395 C37.8626061,22.98 38.2082727,22.645 38.6353333,22.645 L46.3018182,22.645 C46.7283636,22.645 47.0745455,22.98 47.0745455,23.395 C47.0745455,23.805 46.7283636,24.145 46.3018182,24.145 Z M46.3389091,27.285 L38.6724242,27.285 C38.2458788,27.285 37.899697,26.95 37.899697,26.535 C37.899697,26.12 38.2458788,25.785 38.6724242,25.785 L46.3389091,25.785 C46.7659697,25.785 47.1116364,26.12 47.1116364,26.535 C47.1116364,26.95 46.7659697,27.285 46.3389091,27.285 Z M46.3018182,30.43 L38.6353333,30.43 C38.2082727,30.43 37.8626061,30.09 37.8626061,29.68 C37.8626061,29.265 38.2082727,28.93 38.6353333,28.93 L46.3018182,28.93 C46.7283636,28.93 47.0745455,29.265 47.0745455,29.68 C47.0745455,30.09 46.7283636,30.43 46.3018182,30.43 Z M36.0930606,16.52 C35.9534545,16.52 35.8354848,16.635 35.8354848,16.77 L35.8354848,33.05 C35.8354848,33.185 35.9534545,33.3 36.0930606,33.3 L48.9187879,33.3 C49.0583939,33.3 49.1763636,33.185 49.1763636,33.05 L49.1763636,16.77 C49.1763636,16.635 49.0583939,16.52 48.9187879,16.52 L36.0930606,16.52 Z M48.9187879,34.8 L36.0930606,34.8 C35.0988182,34.8 34.2900303,34.015 34.2900303,33.05 L34.2900303,16.77 C34.2900303,15.805 35.0988182,15.02 36.0930606,15.02 L48.9187879,15.02 C49.9130303,15.02 50.7218182,15.805 50.7218182,16.77 L50.7218182,33.05 C50.7218182,34.015 49.9130303,34.8 48.9187879,34.8 Z" id="doc_icn"></path>
            </g>
        </g>
    </g>
</svg>