<?xml version="1.0" encoding="UTF-8"?>
<svg width="21px" height="17px" viewBox="0 0 21 17" version="1.1" xmlns="http://www.w3.org/2000/svg" xmlns:xlink="http://www.w3.org/1999/xlink">
    <!-- Generator: Sketch 49.3 (51167) - http://www.bohemiancoding.com/sketch -->
    <title>folder_icn</title>
    <desc>Created with Sketch.</desc>
    <defs></defs>
    <g id="Page-1" stroke="none" stroke-width="1" fill="none" fill-rule="evenodd">
        <g id="files" transform="translate(-32.000000, -283.000000)" fill="#B2BCC9">
            <g id="folder" transform="translate(0.000000, 266.000000)">
                <path d="M33.7173902,18.775 L33.7173902,31.625 C33.7255854,31.895 33.8495366,32.365 34.5911951,32.385 C36.3536585,32.43 50.5399268,32.405 50.6828293,32.405 C51.091561,32.39 51.3036098,32.12 51.3036098,31.595 L51.3030976,22.295 C51.3036098,22.275 51.3025854,21.995 51.1243415,21.82 C50.9886098,21.69 50.7540244,21.62 50.4282683,21.62 C48.7206098,21.62 41.5683171,21.595 41.5683171,21.595 C41.371122,21.595 41.1816098,21.52 41.0392195,21.385 L38.252878,18.775 L33.7173902,18.775 Z M42.707439,33.915 C39.0841707,33.915 35.4142927,33.905 34.5507317,33.885 C32.8072195,33.84 32.1782439,32.51 32.1808049,31.625 L32.1808049,18.025 C32.1808049,17.615 32.5244878,17.275 32.9490976,17.275 L38.5622439,17.275 C38.7604634,17.275 38.951,17.35 39.0939024,17.485 L41.8812683,20.095 C43.2677805,20.1 48.9336829,20.12 50.4282683,20.12 C51.3835122,20.12 51.9412927,20.485 52.2409268,20.79 C52.8606829,21.425 52.8427561,22.24 52.8391707,22.33 L52.8401951,31.595 C52.8401951,32.48 52.4867805,33.005 52.1907317,33.295 C51.5812195,33.885 50.7903902,33.905 50.6843659,33.905 C50.6828293,33.905 50.6818049,33.905 50.6802683,33.905 C50.3811463,33.905 46.5704146,33.915 42.707439,33.915 Z" id="folder_icn"></path>
            </g>
        </g>
    </g>
</svg>