<?xml version="1.0" encoding="UTF-8"?>
<svg width="26px" height="23px" viewBox="0 0 26 23" version="1.1" xmlns="http://www.w3.org/2000/svg" xmlns:xlink="http://www.w3.org/1999/xlink">
    <!-- Generator: Sketch 52.3 (67297) - http://www.bohemiancoding.com/sketch -->
    <title>Path</title>
    <desc>Created with Sketch.</desc>
    <g id="Page-1" stroke="none" stroke-width="1" fill="none" fill-rule="evenodd">
        <g id="home" transform="translate(0.000000, -1.000000)" fill="#B2BCC9">
            <path d="M10.4,22.9166667 L10.4,18.2869001 C10.7239639,16.6659691 11.5906272,15.8555036 12.9999899,15.8555036 C14.4093526,15.8555036 15.2760227,16.6659691 15.6,18.2869001 L15.6,22.9166667 C15.6,23.5149751 16.0850249,24 16.6833333,24 L21.0166667,24 C21.6149751,24 22.1,23.5149751 22.1,22.9166667 L22.1,13.1764706 L24.1739706,13.1764706 C24.7722791,13.1764706 25.257304,12.6914457 25.257304,12.0931373 C25.257304,11.778506 25.1205182,11.4794178 24.8825117,11.273637 L13.7085411,1.61260567 C13.3016745,1.2608282 12.6983255,1.2608282 12.2914589,1.61260567 L1.11748826,11.273637 C0.664890776,11.6649535 0.61521268,12.3490809 1.00652912,12.8016784 C1.21230989,13.0396848 1.51139811,13.1764706 1.82602935,13.1764706 L3.9,13.1764706 L3.9,22.9166667 C3.9,23.5149751 4.38502485,24 4.98333333,24 L9.31666667,24 C9.91497515,24 10.4,23.5149751 10.4,22.9166667 Z" id="Path"></path>
        </g>
    </g>
</svg>