<?xml version="1.0" encoding="UTF-8"?>
<svg width="28px" height="28px" viewBox="0 0 28 28" version="1.1" xmlns="http://www.w3.org/2000/svg" xmlns:xlink="http://www.w3.org/1999/xlink">
    <!-- Generator: Sketch 52.3 (67297) - http://www.bohemiancoding.com/sketch -->
    <title>key</title>
    <desc>Created with Sketch.</desc>
    <g id="Page-1" stroke="none" stroke-width="1" fill="none" fill-rule="evenodd">
        <g id="key" fill="#B2BCC9">
            <circle id="Oval" fill-opacity="0.2" cx="14" cy="14" r="14"></circle>
            <path d="M17.4504077,17.5434588 C19.1320833,17.5434588 20.4953506,16.2003131 20.4953506,14.5434588 C20.4953506,12.8866046 19.1320833,11.5434588 17.4504077,11.5434588 C15.7687322,11.5434588 14.4054649,12.8866046 14.4054649,14.5434588 C14.4054649,16.2003131 15.7687322,17.5434588 17.4504077,17.5434588 Z M12.9021454,15.0752898 L9.35190471,15.2613501 L6.12678173,15.4303716 L5.88794615,15.4428884 C5.42259452,15.4672765 5.02558206,15.1098049 5.00119402,14.6444532 C4.97680597,14.1791016 5.33427759,13.7820891 5.79962923,13.7577011 L13.0077761,13.3799381 C13.5130614,11.4365507 15.3025473,9.99999654 17.4325848,9.99999654 C19.9550981,9.99999654 21.9999991,12.0147152 21.9999991,14.4999966 C21.9999991,16.9852779 19.9550981,18.9999966 17.4325848,18.9999966 C15.1078983,18.9999966 13.1888485,17.288893 12.9021454,15.0752898 Z M10.4203614,14.5650376 L10.5989327,17.1187256 C10.6278268,17.5319302 10.3162816,17.8903219 9.90307701,17.919216 C9.48987246,17.9481101 9.1314807,17.6365649 9.10258662,17.2233603 L8.92401536,14.6696723 C8.89512128,14.2564678 9.20666648,13.898076 9.61987104,13.869182 C10.0330756,13.8402879 10.3914673,14.1518331 10.4203614,14.5650376 Z M8.11978198,14.4288722 L8.22755175,15.9700517 C8.25644583,16.3832563 7.94490063,16.741648 7.53169607,16.7705421 C7.11849151,16.7994362 6.76009975,16.487891 6.73120567,16.0746864 L6.62343591,14.5335069 C6.59454183,14.1203024 6.90608703,13.7619106 7.31929159,13.7330166 C7.73249615,13.7041225 8.0908879,14.0156677 8.11978198,14.4288722 Z" id="key_icon" fill-rule="nonzero" transform="translate(13.500008, 14.499997) rotate(-23.000000) translate(-13.500008, -14.499997) "></path>
        </g>
    </g>
</svg>