<?xml version="1.0" encoding="UTF-8"?>
<svg width="23px" height="23px" viewBox="0 0 23 23" version="1.1" xmlns="http://www.w3.org/2000/svg" xmlns:xlink="http://www.w3.org/1999/xlink">
    <!-- Generator: Sketch 52.3 (67297) - http://www.bohemiancoding.com/sketch -->
    <title>settings</title>
    <desc>Created with Sketch.</desc>
    <g id="Page-1" stroke="none" stroke-width="1" fill="none" fill-rule="evenodd">
        <g id="settings">
            <rect id="Rectangle-2" fill="#BBD4E6" opacity="0" x="0" y="2.37e-07" width="23" height="23"></rect>
            <path d="M13.8194154,22.287501 C13.8194154,22.6558155 13.479262,22.950001 13.1101253,22.950001 L9.43580376,22.950001 C9.06666699,22.950001 8.72651357,22.6558155 8.72700245,22.303128 L8.59994902,20.2745082 C8.04705876,20.0966083 7.56439789,19.8983597 7.12595487,19.6594006 L5.5897789,21.0209843 C5.31725561,21.224951 4.91969638,21.224951 4.6203806,20.9977953 L2.00242652,18.3852953 C1.72083347,18.1042889 1.72083347,17.6707131 1.99233858,17.4003833 L3.34307238,15.8839735 C3.10332216,15.4457534 2.90446669,14.9632687 2.72602063,14.4104632 L0.663361169,14.2416677 C0.29484933,14.2416677 0,13.9021657 0,13.5333343 L0,9.8666677 C0,9.49783633 0.29484933,9.15833433 0.64779896,9.15881917 L2.68118148,9.03199752 C2.8593561,8.48057561 3.05790067,7.99914261 3.29717869,7.56179723 L1.93324007,6.02936786 C1.72858595,5.75706418 1.72858595,5.35960449 1.95649751,5.06054007 L4.57445158,2.44804007 C4.85575638,2.16732131 5.28933756,2.16732131 5.5599475,2.43797679 L7.08009019,3.78639966 C7.51941258,3.54696767 8.00313078,3.34840783 8.55741236,3.17023617 L8.72651357,1.112501 C8.72651357,0.74418647 9.06666699,0.450001 9.43580376,0.450001 L13.1101253,0.450001 C13.479262,0.450001 13.8194154,0.74418647 13.8189266,1.096874 L13.94598,3.12549383 C14.4988703,3.30339374 14.9815311,3.50164232 15.4199741,3.74060139 L16.9561501,2.37901765 C17.2286734,2.175051 17.6262326,2.175051 17.9255484,2.40220673 L20.5435025,5.01470673 C20.8250955,5.29571314 20.8250955,5.72928886 20.5535904,5.99961872 L19.2028566,7.51602847 C19.4421245,7.95336692 19.640662,8.43479199 19.818831,8.98620297 L21.8366388,9.112501 C22.2051507,9.112501 22.5,9.45200299 22.5,9.8208343 L22.5,13.487501 C22.5,13.8563323 22.2051507,14.1958343 21.852201,14.1953495 L19.8188185,14.3221711 C19.6406439,14.8735931 19.4420993,15.3550261 19.2028213,15.7923714 L20.5667599,17.3248008 C20.7714141,17.5971045 20.7714141,17.9945642 20.5435025,18.2936286 L17.9255484,20.9061286 C17.6442436,21.1868474 17.2106624,21.1868474 16.9400525,20.9161919 L15.4199098,19.567769 C14.9815907,19.8066542 14.4990783,20.0048538 13.9463839,20.1827115 L13.8194154,22.287501 Z M12.4166997,21.5333343 L12.5386221,19.675001 C12.5386221,19.3602927 12.7728531,19.084051 13.0955393,19.0199357 C13.7675249,18.8522893 14.47699,18.5553915 15.1571722,18.1679677 C15.4414639,18.026118 15.7816278,18.046086 15.9855024,18.2501825 L17.4170751,19.5155053 L19.0589367,17.8770643 L17.802009,16.4602953 C17.5868596,16.2455941 17.5668093,15.9054502 17.722506,15.5979454 C18.091976,15.0244117 18.3683938,14.3403237 18.5628178,13.564248 C18.630587,13.293736 18.8765832,13.086019 19.2024487,13.0088621 L21.0814196,12.8865758 L21.0814196,10.5592005 L19.2186848,10.437501 C18.9038278,10.437501 18.6271145,10.2038468 18.5628178,9.8815874 C18.3948511,9.21112042 18.0973721,8.50322521 17.7091588,7.82449101 C17.5668093,7.54038512 17.5868596,7.20024126 17.7916259,6.99654853 L19.0589008,5.56873518 L17.4170393,3.9302943 L15.9965296,5.18529527 C15.7816278,5.39974935 15.4414639,5.41971731 15.1337992,5.26459038 C14.5589829,4.89583547 13.8733544,4.61994833 13.0955393,4.42589966 C12.8247682,4.35834792 12.6165675,4.11280519 12.5388491,3.78148516 L12.4571974,1.86666767 L10.1292293,1.86666767 L10.0073069,3.725001 C10.0073069,4.03970931 9.77307595,4.31595099 9.45038973,4.38006632 C8.77840411,4.54771273 8.06893904,4.84461052 7.38875682,5.23203426 C7.10446511,5.37388398 6.76430118,5.35391602 6.56042662,5.1498195 L5.1288539,3.88449668 L3.48699231,5.52293772 L4.74392003,6.93970673 C4.95906945,7.15440792 4.97911968,7.49455179 4.82342301,7.80205658 C4.45395304,8.37559029 4.17753521,9.05967834 3.98311124,9.835754 C3.91534206,10.106266 3.66934585,10.313983 3.34313625,10.391162 L1.41858038,10.5137501 L1.41858038,12.8408015 L3.28131524,12.962501 C3.59617219,12.962501 3.87288546,13.1961552 3.93718222,13.5184146 C4.10514889,14.1888816 4.40262792,14.8967768 4.79084116,15.575511 C4.93319067,15.8596169 4.91314043,16.1997607 4.70837409,16.4034535 L3.44109925,17.8312668 L5.08296066,19.4697077 L6.50347037,18.2147067 C6.71837216,18.0002526 7.0585361,17.9802847 7.36620079,18.1354116 C7.94101707,18.5041665 8.62664557,18.7800537 9.40446071,18.9741023 C9.67523178,19.0416541 9.88343245,19.2871968 9.96086803,19.6132095 L10.0836851,21.5333343 L12.4166997,21.5333343 Z" id="Shape" fill="#4A89FC" fill-rule="nonzero"></path>
            <path d="M11.2999878,15.200001 C9.36195544,15.200001 7.79998779,13.6380334 7.79998779,11.700001 C7.79998779,9.7619686 9.36195544,8.200001 11.2999878,8.200001 C13.2380201,8.200001 14.7999878,9.7619686 14.7999878,11.700001 C14.7999878,13.6380334 13.2380201,15.200001 11.2999878,15.200001 Z M11.2999878,9.700001 C10.1879583,9.700001 9.29998779,10.5879715 9.29998779,11.700001 C9.29998779,12.8120305 10.1879583,13.700001 11.2999878,13.700001 C12.4120173,13.700001 13.2999878,12.8120305 13.2999878,11.700001 C13.2999878,10.5879715 12.4120173,9.700001 11.2999878,9.700001 Z" id="Shape" fill="#4A89FC" fill-rule="nonzero"></path>
        </g>
    </g>
</svg>