<?xml version="1.0" encoding="UTF-8"?>
<svg width="13px" height="12px" viewBox="0 0 13 12" version="1.1" xmlns="http://www.w3.org/2000/svg" xmlns:xlink="http://www.w3.org/1999/xlink">
    <!-- Generator: Sketch 49.1 (51147) - http://www.bohemiancoding.com/sketch -->
    <title>copy_link_icn</title>
    <desc>Created with Sketch.</desc>
    <defs></defs>
    <g id="Page-1" stroke="none" stroke-width="1" fill="none" fill-rule="evenodd">
        <g id="UC02_2_Address-bar-after-click" transform="translate(-317.000000, -70.000000)" fill="#B2BCC9">
            <g id="link_pop_up" transform="translate(304.000000, 43.000000)">
                <path d="M20.1264802,35.509151 L18.2555925,37.271192 C17.2562772,38.1750602 15.6824832,38.1996387 14.7481344,37.3245033 C14.3192828,36.9229379 14.0871555,36.3635159 14.0951851,35.749744 C14.1028496,35.1283563 14.3619855,34.545048 14.8061662,34.1483292 L16.875238,32.3028595 C17.095321,32.1065772 17.1059054,31.777709 16.8989617,31.5689643 C16.6916531,31.3595272 16.345652,31.3498342 16.1248391,31.5461166 L14.0557672,33.3919324 C13.3962483,33.9807795 13.0115593,34.8354905 13.000245,35.7372817 C12.9892955,36.6228025 13.345881,37.4709361 13.9791214,38.0635912 C14.6463049,38.6880945 15.5335714,39 16.4339771,39 C17.3573766,39 18.2946454,38.6711318 19.0194957,38.0151264 L20.898048,36.2461619 C21.1122913,36.0439945 21.1137512,35.7151263 20.9006028,35.5115743 C20.6874545,35.3080222 20.3410884,35.3073298 20.1264802,35.509151 M25.0208625,27.9368751 C25.6541029,28.5298763 26.0110533,29.3776638 25.999739,30.2628384 C25.9884246,31.1646295 25.6037356,32.0196867 24.9438517,32.6085338 L22.8751448,34.4540035 C22.7689357,34.5481636 22.634258,34.5948975 22.4999454,34.5948975 C22.3543183,34.5948975 22.2086913,34.5402016 22.1010222,34.4311558 C21.8940785,34.2224111 21.9046629,33.8938891 22.1247459,33.6972605 L24.1938177,31.8517909 C24.6379984,31.4557644 24.8971343,30.8717638 24.9051638,30.2507222 C24.9128284,29.6369504 24.6807011,29.0775283 24.2514846,28.6756168 C23.3164057,27.8004813 21.7433418,27.8243675 20.7443914,28.7292742 L18.8738687,30.4913152 C18.6588955,30.6931364 18.3128944,30.6924441 18.0993811,30.4885458 C17.8865977,30.2849937 17.8876926,29.9564717 18.1019359,29.7543044 L19.9804882,27.9849937 C21.4112099,26.6892531 23.6689764,26.6705596 25.0208625,27.9368751 Z M20.7892839,31.1123568 C21.0100969,30.9164206 21.3564629,30.9268059 21.5630416,31.136243 C21.7699853,31.3453339 21.7586709,31.6742021 21.537858,31.8701383 L18.1482884,34.8829168 C18.0428092,34.9767308 17.9081315,35.0231185 17.7741838,35.0231185 C17.6281918,35.0231185 17.4821998,34.9680763 17.3745307,34.8590306 C17.167587,34.6495935 17.1789014,34.3210715 17.3997143,34.1251353 L20.7892839,31.1123568 Z" id="copy_link_icn"></path>
            </g>
        </g>
    </g>
</svg>