<?xml version="1.0" encoding="UTF-8"?>
<svg width="13px" height="9px" viewBox="0 0 13 9" version="1.1" xmlns="http://www.w3.org/2000/svg" xmlns:xlink="http://www.w3.org/1999/xlink">
    <!-- Generator: Sketch 49.1 (51147) - http://www.bohemiancoding.com/sketch -->
    <title>email_icn</title>
    <desc>Created with Sketch.</desc>
    <defs></defs>
    <g id="Page-1" stroke="none" stroke-width="1" fill="none" fill-rule="evenodd">
        <g id="UC02_2_Address-bar-after-click" transform="translate(-318.000000, -214.000000)" fill="#B2BCC9" fill-rule="nonzero">
            <g id="link_pop_up" transform="translate(304.000000, 43.000000)">
                <path d="M26.2464643,172.5426 C26.6243929,172.26495 26.9336071,172.4139 26.9336071,172.87335 L26.9336071,179.0199 C26.9336071,179.47935 26.5454643,179.85555 26.0714286,179.85555 L20.4665714,179.85555 L14.8621786,179.85555 C14.3881429,179.85555 14,179.47935 14,179.0199 L14,172.87335 C14,172.4139 14.3092143,172.26495 14.6871429,172.5426 L19.7789643,176.28885 C19.9693214,176.427 20.2186429,176.49495 20.4675,176.4918 C20.7158929,176.49495 20.9652143,176.42745 21.1555714,176.28885 L26.2464643,172.5426 Z M15.0228214,171.59895 C14.6504643,171.3141 14.7349643,171.08055 15.209,171.08055 L20.4670357,171.08055 L25.7250714,171.08055 C26.1986429,171.08055 26.2831429,171.3141 25.9098571,171.59895 L21.2512143,175.17555 C21.0399643,175.338 20.7488571,175.40955 20.4665714,175.39605 C20.1838214,175.40955 19.8927143,175.33755 19.6814643,175.17555 L15.0228214,171.59895 Z" id="email_icn"></path>
            </g>
        </g>
    </g>
</svg>