<?xml version="1.0" encoding="UTF-8"?>
<svg width="21px" height="21px" viewBox="0 0 21 21" version="1.1" xmlns="http://www.w3.org/2000/svg" xmlns:xlink="http://www.w3.org/1999/xlink">
    <!-- Generator: Sketch 49.1 (51147) - http://www.bohemiancoding.com/sketch -->
    <title>mark_icn</title>
    <desc>Created with Sketch.</desc>
    <defs></defs>
    <g id="Page-1" stroke="none" stroke-width="1" fill="none" fill-rule="evenodd">
        <g id="Dapp_overall_UI" transform="translate(-8474.000000, -835.000000)" fill="#3BCD5D">
            <g id="alert_1_pop_up" transform="translate(8455.000000, 824.000000)">
                <path d="M29.5,32 C23.7010101,32 19,27.2989899 19,21.5 C19,15.7010101 23.7010101,11 29.5,11 C35.2989899,11 40,15.7010101 40,21.5 C40,27.2989899 35.2989899,32 29.5,32 Z M34.6424369,17.6505023 L28.1578947,24.2846878 L25.3575631,21.419733 C25.1645408,21.2222564 24.8479789,21.2186454 24.6505023,21.4116677 C24.4530257,21.60469 24.4494147,21.9212519 24.6424369,22.1187285 L27.8003317,25.3494977 C27.996475,25.5501674 28.3193145,25.5501674 28.5154578,25.3494977 L35.3575631,18.3494977 C35.5505853,18.1520211 35.5469743,17.8354592 35.3494977,17.6424369 C35.1520211,17.4494147 34.8354592,17.4530257 34.6424369,17.6505023 Z" id="mark_icn"></path>
            </g>
        </g>
    </g>
</svg>