<?xml version="1.0" encoding="UTF-8"?>
<svg width="300px" height="120px" viewBox="0 0 300 120" version="1.1" xmlns="http://www.w3.org/2000/svg" xmlns:xlink="http://www.w3.org/1999/xlink">
    <!-- Generator: Sketch 49.3 (51167) - http://www.bohemiancoding.com/sketch -->
    <title>favicon</title>
    <desc>Created with Sketch.</desc>
    <defs>
        <rect id="path-1" x="0" y="0" width="300" height="120"></rect>
        <radialGradient cx="104.552603%" cy="-3.9471615%" fx="104.552603%" fy="-3.9471615%" r="363.874037%" gradientTransform="translate(1.045526,-0.039472),scale(0.400000,1.000000),translate(-1.045526,0.039472)" id="radialGradient-3">
            <stop stop-color="#FFDD00" offset="0%"></stop>
            <stop stop-color="#FF7C55" offset="45%"></stop>
            <stop stop-color="#FF00C1" offset="100%"></stop>
        </radialGradient>
        <radialGradient cx="89.6823557%" cy="7.24321468%" fx="89.6823557%" fy="7.24321468%" r="217.168469%" gradientTransform="translate(0.896824,0.072432),scale(0.905890,1.000000),translate(-0.896824,-0.072432)" id="radialGradient-4">
            <stop stop-color="#FFFFFF" offset="0%"></stop>
            <stop stop-color="#FFFFFF" stop-opacity="0.62" offset="39%"></stop>
            <stop stop-color="#FFFFFF" stop-opacity="0" offset="100%"></stop>
        </radialGradient>
        <linearGradient x1="-791.733608%" y1="829%" x2="6149.07309%" y2="9095%" id="linearGradient-5">
            <stop stop-color="#FFFFFF" offset="0%"></stop>
            <stop stop-color="#FFFFFF" stop-opacity="0.62" offset="39%"></stop>
            <stop stop-color="#FFFFFF" stop-opacity="0" offset="100%"></stop>
        </linearGradient>
    </defs>
    <g id="Page-1" stroke="none" stroke-width="1" fill="none" fill-rule="evenodd">
        <g id="favicon">
            <mask id="mask-2" fill="white">
                <use xlink:href="#path-1"></use>
            </mask>
            <use id="Mask" fill="#D8D8D8" xlink:href="#path-1"></use>
            <g mask="url(#mask-2)" fill-rule="nonzero">
                <rect id="Rectangle-path" fill="url(#radialGradient-3)" x="0" y="0" width="300" height="120"></rect>
                <path d="M163.97,22 L136.29,22 C120.11358,22 107,35.1135797 107,51.29 L107,95.61 C107,100.42 109.78,101.61 113.18,98.17 L117.18,94.17 C121.256018,90.0926547 126.784701,87.8013268 132.55,87.8 L163.97,87.8 C180.14642,87.8 193.26,74.6864203 193.26,58.51 L193.26,51.29 C193.26,35.1135797 180.14642,22 163.97,22 Z" id="Shape" fill="url(#radialGradient-4)"></path>
                <path d="M113.18,98.17 L117.18,94.17 C121.256018,90.0926547 126.784701,87.8013268 132.55,87.8 L163.97,87.8 C180.14642,87.8 193.26,74.6864203 193.26,58.51 L193.26,51.29 C193.276727,42.1538492 189.017809,33.5361073 181.75,28 C136.54,30.28 107,56.2 107,95.61 C107,100.42 109.78,101.57 113.18,98.17 Z" id="Shape" fill="url(#linearGradient-5)"></path>
            </g>
        </g>
    </g>
</svg>