<?xml version="1.0" encoding="utf-8"?>
<!-- Generator: Adobe Illustrator 22.1.0, SVG Export Plug-In . SVG Version: 6.00 Build 0)  -->
<svg version="1.1" id="Слой_1" xmlns="http://www.w3.org/2000/svg" xmlns:xlink="http://www.w3.org/1999/xlink" x="0px" y="0px"
	 viewBox="0 0 800 800" style="enable-background:new 0 0 800 800;" xml:space="preserve">
<style type="text/css">
	.st0{fill:url(#SVGID_1_);}
	.st1{fill:#FFFFFF;}
</style>
<linearGradient id="SVGID_1_" gradientUnits="userSpaceOnUse" x1="156.4429" y1="-21.5953" x2="645.5644" y2="825.588">
	<stop  offset="0" style="stop-color:#77E8FD"/>
	<stop  offset="0.1178" style="stop-color:#70DEFD"/>
	<stop  offset="0.3176" style="stop-color:#5DC3FD"/>
	<stop  offset="0.5751" style="stop-color:#3E98FE"/>
	<stop  offset="0.8772" style="stop-color:#135CFF"/>
	<stop  offset="1" style="stop-color:#0042FF"/>
</linearGradient>
<path class="st0" d="M671.3,792H130.7C64.6,792,11,739.1,11,673.7V130.3C11,64.9,64.6,12,130.7,12h540.5
	C737.4,12,791,64.9,791,130.3v543.5C791,739.1,737.4,792,671.3,792z"/>
<g>
	<path class="st1" d="M279.6,283.9H148.7c-1.8,0-3.3-1.5-3.3-3.3V149.7c0-1.8,1.5-3.3,3.3-3.3h130.9c1.8,0,3.3,1.5,3.3,3.3v130.9
		C282.9,282.4,281.4,283.9,279.6,283.9z"/>
	<path class="st1" d="M466.5,283.9H335.5c-1.8,0-3.3-1.5-3.3-3.3V149.7c0-1.8,1.5-3.3,3.3-3.3h130.9c1.8,0,3.3,1.5,3.3,3.3v130.9
		C469.8,282.4,468.3,283.9,466.5,283.9z"/>
	<path class="st1" d="M653.3,283.9H522.4c-1.8,0-3.3-1.5-3.3-3.3V149.7c0-1.8,1.5-3.3,3.3-3.3h130.9c1.8,0,3.3,1.5,3.3,3.3v130.9
		C656.6,282.4,655.2,283.9,653.3,283.9z"/>
	<path class="st1" d="M279.6,470.8H148.7c-1.8,0-3.3-1.5-3.3-3.3V336.5c0-1.8,1.5-3.3,3.3-3.3h130.9c1.8,0,3.3,1.5,3.3,3.3v130.9
		C282.9,469.3,281.4,470.8,279.6,470.8z"/>
	<path class="st1" d="M466.5,470.8H335.5c-1.8,0-3.3-1.5-3.3-3.3V336.5c0-1.8,1.5-3.3,3.3-3.3h130.9c1.8,0,3.3,1.5,3.3,3.3v130.9
		C469.8,469.3,468.3,470.8,466.5,470.8z"/>
	<path class="st1" d="M653.3,470.8H522.4c-1.8,0-3.3-1.5-3.3-3.3V336.5c0-1.8,1.5-3.3,3.3-3.3h130.9c1.8,0,3.3,1.5,3.3,3.3v130.9
		C656.6,469.3,655.2,470.8,653.3,470.8z"/>
	<path class="st1" d="M279.6,657.6H148.7c-1.8,0-3.3-1.5-3.3-3.3V523.4c0-1.8,1.5-3.3,3.3-3.3h130.9c1.8,0,3.3,1.5,3.3,3.3v130.9
		C282.9,656.2,281.4,657.6,279.6,657.6z"/>
	<path class="st1" d="M466.5,657.6H335.5c-1.8,0-3.3-1.5-3.3-3.3V523.4c0-1.8,1.5-3.3,3.3-3.3h130.9c1.8,0,3.3,1.5,3.3,3.3v130.9
		C469.8,656.2,468.3,657.6,466.5,657.6z"/>
	<path class="st1" d="M653.3,657.6H522.4c-1.8,0-3.3-1.5-3.3-3.3V523.4c0-1.8,1.5-3.3,3.3-3.3h130.9c1.8,0,3.3,1.5,3.3,3.3v130.9
		C656.6,656.2,655.2,657.6,653.3,657.6z"/>
</g>
</svg>
