<?xml version="1.0" encoding="utf-8"?>
<!-- Generator: Adobe Illustrator 22.1.0, SVG Export Plug-In . SVG Version: 6.00 Build 0)  -->
<svg version="1.1" id="Слой_1" xmlns="http://www.w3.org/2000/svg" xmlns:xlink="http://www.w3.org/1999/xlink" x="0px" y="0px"
	 viewBox="0 0 200 100" style="enable-background:new 0 0 200 100;" xml:space="preserve">
<style type="text/css">
	.st0{fill:url(#SVGID_1_);}
	.st1{fill:#FFFFFF;}
</style>
<linearGradient id="SVGID_1_" gradientUnits="userSpaceOnUse" x1="68.273" y1="-4.8189" x2="161.6902" y2="156.9843">
	<stop  offset="0" style="stop-color:#77E8FD"/>
	<stop  offset="0.1178" style="stop-color:#70DEFD"/>
	<stop  offset="0.3176" style="stop-color:#5DC3FD"/>
	<stop  offset="0.5751" style="stop-color:#3E98FE"/>
	<stop  offset="0.8772" style="stop-color:#135CFF"/>
	<stop  offset="1" style="stop-color:#0042FF"/>
</linearGradient>
<rect class="st0" width="200" height="100.3"/>
<g>
	<path class="st1" d="M78.7,32.2h-14c-1.8,0-3.3-1.5-3.3-3.3V14.6c0-1.8,1.5-3.3,3.3-3.3h14c1.8,0,3.3,1.5,3.3,3.3v14.3
		C82,30.7,80.5,32.2,78.7,32.2z"/>
	<path class="st1" d="M106.8,32.2h-14c-1.8,0-3.3-1.5-3.3-3.3V14.6c0-1.8,1.5-3.3,3.3-3.3h14c1.8,0,3.3,1.5,3.3,3.3v14.3
		C110.1,30.7,108.6,32.2,106.8,32.2z"/>
	<path class="st1" d="M134.8,32.2h-14c-1.8,0-3.3-1.5-3.3-3.3V14.6c0-1.8,1.5-3.3,3.3-3.3h14c1.8,0,3.3,1.5,3.3,3.3v14.3
		C138.1,30.7,136.6,32.2,134.8,32.2z"/>
	<path class="st1" d="M78.7,60.6h-14c-1.8,0-3.3-1.5-3.3-3.3V43c0-1.8,1.5-3.3,3.3-3.3h14c1.8,0,3.3,1.5,3.3,3.3v14.3
		C82,59.1,80.5,60.6,78.7,60.6z"/>
	<path class="st1" d="M106.8,60.6h-14c-1.8,0-3.3-1.5-3.3-3.3V43c0-1.8,1.5-3.3,3.3-3.3h14c1.8,0,3.3,1.5,3.3,3.3v14.3
		C110.1,59.1,108.6,60.6,106.8,60.6z"/>
	<path class="st1" d="M134.8,60.6h-14c-1.8,0-3.3-1.5-3.3-3.3V43c0-1.8,1.5-3.3,3.3-3.3h14c1.8,0,3.3,1.5,3.3,3.3v14.3
		C138.1,59.1,136.6,60.6,134.8,60.6z"/>
	<path class="st1" d="M78.7,89h-14c-1.8,0-3.3-1.5-3.3-3.3V71.4c0-1.8,1.5-3.3,3.3-3.3h14c1.8,0,3.3,1.5,3.3,3.3v14.3
		C82,87.5,80.5,89,78.7,89z"/>
	<path class="st1" d="M106.8,89h-14c-1.8,0-3.3-1.5-3.3-3.3V71.4c0-1.8,1.5-3.3,3.3-3.3h14c1.8,0,3.3,1.5,3.3,3.3v14.3
		C110.1,87.5,108.6,89,106.8,89z"/>
	<path class="st1" d="M134.8,89h-14c-1.8,0-3.3-1.5-3.3-3.3V71.4c0-1.8,1.5-3.3,3.3-3.3h14c1.8,0,3.3,1.5,3.3,3.3v14.3
		C138.1,87.5,136.6,89,134.8,89z"/>
</g>
</svg>
