<?xml version="1.0" encoding="UTF-8"?>
<svg width="24px" height="17px" viewBox="0 0 24 17" version="1.1" xmlns="http://www.w3.org/2000/svg" xmlns:xlink="http://www.w3.org/1999/xlink">
    <!-- Generator: Sketch 48.2 (47327) - http://www.bohemiancoding.com/sketch -->
    <title>check_icon</title>
    <desc>Created with Sketch.</desc>
    <defs>
        <path d="M7.34469803,14.242866 L20.358109,0.767084397 C20.6458459,0.469124095 21.1206474,0.460836406 21.4186077,0.748573324 C21.716568,1.03631024 21.7248556,1.51111165 21.4371187,1.80907195 L7.98713793,15.7369348 C7.95615464,15.7853532 7.9190752,15.8309531 7.87591889,15.8726287 C7.57795859,16.1603656 7.10315718,16.1520779 6.81542026,15.8541176 L0.216165742,9.02038949 C-0.0715711766,8.72242919 -0.0632834872,8.24762778 0.234676814,7.95989086 C0.532637115,7.67215395 1.00743852,7.68044163 1.29517544,7.97840194 L7.34469803,14.242866 Z" id="path-1"></path>
    </defs>
    <g id="UC07_3_Settings_network" stroke="none" stroke-width="1" fill="none" fill-rule="evenodd" transform="translate(-216.000000, -197.000000)">
        <g id="Checkbox" transform="translate(212.000000, 195.000000)">
            <g id="check_icon" transform="translate(5.000000, 2.000000)">
                <g>
                    <use fill="#4686FF" fill-rule="evenodd" xlink:href="#path-1"></use>
                    <path stroke="#4686FF" stroke-width="0.5" d="M7.34469803,13.8829768 L20.1782741,0.593419804 C20.5619233,0.196139402 21.1949918,0.18508915 21.5922722,0.568738374 C21.9895526,0.952387599 22.0006029,1.58545614 21.6169537,1.98273654 L8.19771471,15.8716843 C8.1558485,15.9371098 8.10625834,15.9977333 8.04958348,16.0524636 C7.65230308,16.4361128 7.01923454,16.4250626 6.63558531,16.0277822 L0.0363307915,9.19405408 C-0.347318433,8.79677368 -0.33626818,8.16370514 0.0610122214,7.78005591 C0.458292623,7.39640669 1.09136117,7.40745694 1.47501039,7.80473734 L7.34469803,13.8829768 Z"></path>
                </g>
            </g>
        </g>
    </g>
</svg>