<?xml version="1.0" encoding="UTF-8"?>
<svg width="18px" height="18px" viewBox="0 0 18 18" version="1.1" xmlns="http://www.w3.org/2000/svg" xmlns:xlink="http://www.w3.org/1999/xlink">
    <!-- Generator: Sketch 48.2 (47327) - http://www.bohemiancoding.com/sketch -->
    <title>up_icon</title>
    <desc>Created with Sketch.</desc>
    <defs></defs>
    <g id="UC05_Market_app_page" stroke="none" stroke-width="1" fill="none" fill-rule="evenodd" transform="translate(-215.000000, -1194.000000)">
        <g id="Review" transform="translate(112.000000, 1186.000000)" fill="#B2BCC9">
            <g id="positive" transform="translate(103.000000, 8.000000)">
                <g id="up_icon">
                    <g>
                        <path d="M8.18931624,3.57278416 L2.18874251,9.57335789 C2.03342902,9.72867138 1.83352384,9.81068376 1.61538462,9.81068376 C1.39724539,9.81068376 1.19734021,9.72867138 1.04202672,9.57335789 C0.725592232,9.2569234 0.725592232,8.7430766 1.04202672,8.42664211 L8.42664211,1.04202672 C8.5725475,0.896121335 8.78765451,0.804700855 9,0.804700855 C9.21234549,0.804700855 9.4274525,0.896121335 9.57335789,1.04202672 L16.9579733,8.42664211 C17.2637253,8.75258755 17.2697843,9.26154684 16.9579733,9.57335789 C16.6415388,9.88979238 16.127692,9.88979238 15.8112575,9.57335789 L9.81068376,3.57278416 L9.81068376,16.3846154 C9.81068376,16.8372165 9.4526011,17.1952991 9,17.1952991 C8.5473989,17.1952991 8.18931624,16.8372165 8.18931624,16.3846154 L8.18931624,3.57278416 Z" fill-rule="nonzero"></path>
                    </g>
                </g>
            </g>
        </g>
    </g>
</svg>