<?xml version="1.0" encoding="UTF-8"?>
<svg width="21px" height="21px" viewBox="0 0 21 21" version="1.1" xmlns="http://www.w3.org/2000/svg" xmlns:xlink="http://www.w3.org/1999/xlink">
    <!-- Generator: Sketch 49.1 (51147) - http://www.bohemiancoding.com/sketch -->
    <title>Oval_icn 1</title>
    <desc>Created with Sketch.</desc>
    <defs></defs>
    <g id="Page-1" stroke="none" stroke-width="1" fill="none" fill-rule="evenodd">
        <g id="Array_overall_UI" transform="translate(-8474.000000, -959.000000)">
            <g id="alert_3_pop_up" transform="translate(8455.000000, 948.000000)">
                <g id="Oval_icn" transform="translate(19.000000, 11.000000)">
                    <circle id="Oval" fill="#4686FF" cx="10.5" cy="10.5" r="10.5"></circle>
                    <path d="M10.5,5 C10.7761424,5 11,5.22385763 11,5.5 L11,11.5 C11,11.7761424 10.7761424,12 10.5,12 C10.2238576,12 10,11.7761424 10,11.5 L10,5.5 C10,5.22385763 10.2238576,5 10.5,5 Z M10.5,13 C10.7761424,13 11,13.2238576 11,13.5 L11,14.5 C11,14.7761424 10.7761424,15 10.5,15 C10.2238576,15 10,14.7761424 10,14.5 L10,13.5 C10,13.2238576 10.2238576,13 10.5,13 Z" id="Combined-Shape" fill="#FFFFFF"></path>
                </g>
            </g>
        </g>
    </g>
</svg>