<?xml version="1.0" encoding="UTF-8"?>
<svg width="42px" height="42px" viewBox="0 0 42 42" version="1.1" xmlns="http://www.w3.org/2000/svg" xmlns:xlink="http://www.w3.org/1999/xlink">
    <g id="Page-1" stroke="none" stroke-width="1" fill="none" fill-rule="evenodd">
        <g id="favicon">
            <rect id="Rectangle" fill="#FFFFFF" x="0" y="0" width="42" height="42" rx="5"></rect>
            <path d="M21,31 C23.4189531,31 25.4367034,29.2822474 25.8999819,27 L27.9291112,27 C27.4438852,30.392291 24.5264743,33 21,33 C18.5555272,33 16.4037064,31.7470086 15.1517571,29.8482429 L14,31 L14,30 L14,28 L14,27 L14.0708888,27 L16.1000181,27 L18,27 L16.6081371,28.3918629 C17.456236,29.945806 19.1050078,31 21,31 Z M25.8999819,25 L25,25 L24,25 L25.3918749,23.6081591 C24.5438006,22.0542175 22.8950132,21 21,21 C18.5810469,21 16.5632966,22.7177526 16.1000181,25 L14.0708889,25 C14.5561148,21.607709 17.4735257,19 21,19 C23.4444875,19 25.5963196,20.2530065 26.8482706,22.151799 L28,21.0000977 L28,25 L27.9291112,25 L25.8999819,25 Z M5,24 C5,21.7828376 6.20753986,19.8416411 8.00211353,18.8029948 C8.10690617,13.9234028 12.0952729,10 17,10 C20.2334976,10 23.0687214,11.7052116 24.6554699,14.2654333 C25.2402065,14.092705 25.859277,14 26.5,14 C29.2845531,14 31.6601501,15.7509485 32.5858427,18.2118973 C35.129704,18.9074543 37,21.2353674 37,24 C37,27.3069658 34.3136299,30 30.9998243,30 L29.0644804,30 C29.3768209,29.3714946 29.617851,28.701298 29.7769836,28 L31.0031611,28 C33.2105543,28 35,26.2046438 35,24 C35,21.790861 33.2058797,20 31.0031611,20 L30.9725356,20 C30.7238035,17.7500155 28.8162709,16 26.5,16 C25.4427534,16 24.4706636,16.3645993 23.7026063,16.974922 C22.8340685,14.0963276 20.1618462,12 17,12 C13.1340066,12 10,15.1340066 10,19 C10,19.3757911 10.0296122,19.7446659 10.0866305,20.1044183 C8.31778819,20.5175755 7,22.1080834 7,24 C7,26.209139 8.79412025,28 10.9968389,28 L12,28 L12,30 L11.0001757,30 C7.68697795,30 5,27.3137085 5,24 Z" id="Rectangle-1-copy-4" fill="#D10058" fill-rule="nonzero"></path>
        </g>
    </g>
</svg>