<?xml version="1.0" encoding="UTF-8"?>
<svg id="Layer_1" data-name="Layer 1" xmlns="http://www.w3.org/2000/svg" xmlns:xlink="http://www.w3.org/1999/xlink" viewBox="0 0 128 128"><defs><style>.cls-1{fill:url(#radial-gradient);}.cls-2{fill:url(#radial-gradient-2);}.cls-3{fill:url(#radial-gradient-3);}.cls-4{fill:url(#radial-gradient-4);}.cls-5{fill:url(#radial-gradient-5);}</style><radialGradient id="radial-gradient" cx="151.05" cy="-41.36" r="235.11" gradientUnits="userSpaceOnUse"><stop offset="0" stop-color="#00ddfc"/><stop offset="0.5" stop-color="#688cfd"/><stop offset="1" stop-color="#d638ff"/></radialGradient><radialGradient id="radial-gradient-2" cx="82.44" cy="49.82" r="95.57" gradientUnits="userSpaceOnUse"><stop offset="0" stop-color="#fff"/><stop offset="0.39" stop-color="#fff" stop-opacity="0.62"/><stop offset="1" stop-color="#fff" stop-opacity="0"/></radialGradient><radialGradient id="radial-gradient-3" cx="67.17" cy="55.66" r="46.85" xlink:href="#radial-gradient-2"/><radialGradient id="radial-gradient-4" cx="112.78" cy="18.73" r="95.57" xlink:href="#radial-gradient-2"/><radialGradient id="radial-gradient-5" cx="97.51" cy="24.57" r="46.85" xlink:href="#radial-gradient-2"/></defs><title>file-share_color</title><rect class="cls-1" width="128" height="128" rx="20" ry="20"/><path class="cls-2" d="M69.07,103.81H28.58a3.64,3.64,0,0,1-3.64-3.64V58.93a3.64,3.64,0,0,1,3.64-3.65h26.7L72.72,72.72v27.45A3.64,3.64,0,0,1,69.07,103.81Z"/><path class="cls-3" d="M55.28,55.28V69.07a3.64,3.64,0,0,0,3.65,3.65H72.72Z"/><path class="cls-4" d="M99.42,72.72H58.93a3.64,3.64,0,0,1-3.65-3.65V27.83a3.64,3.64,0,0,1,3.65-3.64h26.7l17.43,17.43V69.07A3.64,3.64,0,0,1,99.42,72.72Z"/><path class="cls-5" d="M85.63,24.19V38a3.64,3.64,0,0,0,3.64,3.64h13.79Z"/></svg>