<?xml version="1.0" encoding="UTF-8"?>
<svg width="7px" height="24px" viewBox="0 0 7 24" version="1.1" xmlns="http://www.w3.org/2000/svg" xmlns:xlink="http://www.w3.org/1999/xlink">
    <!-- Generator: Sketch 48.2 (47327) - http://www.bohemiancoding.com/sketch -->
    <title>Group</title>
    <desc>Created with Sketch.</desc>
    <defs></defs>
    <g id="Page-1" stroke="none" stroke-width="1" fill="none" fill-rule="evenodd">
        <g id="Group">
            <path d="M-2.0812735,4.12950159 L2.80925196,8.69729661 C3.20292136,9.06498739 3.81709912,9.05477755 4.19832969,8.67420514 L8.67298411,4.20727588 C9.06384565,3.81708913 9.06439268,3.18392439 8.67420593,2.79306285 C8.48925559,2.60779265 8.23902855,2.5024358 7.97725817,2.49961645 L-1.3879217,2.39875069 C-1.94017442,2.39280276 -2.39268545,2.8356703 -2.39863338,3.38792302 C-2.40165754,3.66870987 -2.28648693,3.93783039 -2.0812735,4.12950159 Z" id="arow_down" fill="#E8EBEC" transform="translate(3.283899, 5.682590) rotate(-90.000000) translate(-3.283899, -5.682590) "></path>
            <path d="M-2.0812735,16.1295016 L2.80925196,20.6972966 C3.20292136,21.0649874 3.81709912,21.0547775 4.19832969,20.6742051 L8.67298411,16.2072759 C9.06384565,15.8170891 9.06439268,15.1839244 8.67420593,14.7930628 C8.48925559,14.6077927 8.23902855,14.5024358 7.97725817,14.4996165 L-1.3879217,14.3987507 C-1.94017442,14.3928028 -2.39268545,14.8356703 -2.39863338,15.387923 C-2.40165754,15.6687099 -2.28648693,15.9378304 -2.0812735,16.1295016 Z" id="arow_down-copy" fill="#AAB4BF" transform="translate(3.283899, 17.682590) rotate(-90.000000) translate(-3.283899, -17.682590) "></path>
        </g>
    </g>
</svg>