<?xml version="1.0" encoding="UTF-8"?>
<svg width="23px" height="23px" viewBox="0 0 23 23" version="1.1" xmlns="http://www.w3.org/2000/svg" xmlns:xlink="http://www.w3.org/1999/xlink">
    <g id="UC01_1_Home_page" stroke="none" stroke-width="1" fill="none" fill-rule="evenodd" transform="translate(-640.000000, -18.000000)">
        <g id="Header">
            <g id="Address_bar" transform="translate(78.000000, 14.000000)">
                <g id="Search_icon" transform="translate(562.000000, 4.000000)">
                    <g>
                        <rect id="Rectangle-3" fill="#BBD4E6" opacity="0" x="0" y="0" width="23" height="23"></rect>
                        <path d="M15.8765486,17.130102 C14.231362,18.4900114 12.1698521,19.25 10,19.25 C4.91192881,19.25 0.75,15.0880712 0.75,10 C0.75,4.91192881 4.91192881,0.75 10,0.75 C15.0880712,0.75 19.25,4.91192881 19.25,10 C19.25,12.1541624 18.5010149,14.2017434 17.1589043,15.841523 L21.9767767,20.68989 C22.1535988,20.8667121 22.25,21.0956649 22.25,21.3333333 C22.25,21.5710018 22.1535988,21.7999546 21.9767767,21.9767767 C21.7999546,22.1535988 21.5710018,22.25 21.3333333,22.25 C21.0834285,22.25 20.8457857,22.144381 20.7232233,21.9767767 L15.8765486,17.130102 Z M10,17.25 C13.9869288,17.25 17.25,13.9869288 17.25,10 C17.25,6.01307119 13.9869288,2.75 10,2.75 C6.01307119,2.75 2.75,6.01307119 2.75,10 C2.75,13.9869288 6.01307119,17.25 10,17.25 Z" fill="#B2BCC9" fill-rule="nonzero"></path>
                    </g>
                </g>
            </g>
        </g>
    </g>
</svg>