<?xml version="1.0" encoding="utf-8"?>
<!-- Generator: Adobe Illustrator 22.1.0, SVG Export Plug-In . SVG Version: 6.00 Build 0)  -->
<svg version="1.1" id="Слой_1" xmlns="http://www.w3.org/2000/svg" xmlns:xlink="http://www.w3.org/1999/xlink" x="0px" y="0px"
	 viewBox="0 0 800 800" style="enable-background:new 0 0 800 800;" xml:space="preserve">
<style type="text/css">
	.st0{fill:url(#SVGID_1_);}
	.st1{fill:#FFFFFF;}
</style>
<linearGradient id="SVGID_1_" gradientUnits="userSpaceOnUse" x1="158.2338" y1="813.222" x2="642.3192" y2="-14.9362" gradientTransform="matrix(1.0037 0 0 1.0162 -0.1931 -5.0064)">
	<stop  offset="0" style="stop-color:#EC77AB"/>
	<stop  offset="0.1392" style="stop-color:#E676AF"/>
	<stop  offset="0.3283" style="stop-color:#D474BA"/>
	<stop  offset="0.5461" style="stop-color:#B870CC"/>
	<stop  offset="0.7833" style="stop-color:#906BE4"/>
	<stop  offset="1" style="stop-color:#6666FF"/>
</linearGradient>
<path class="st0" d="M669.5,787.2H133.7C68.1,787.2,15,734.7,15,670V131.3C15,66.5,68.1,14,133.7,14h535.8
	c65.5,0,118.7,52.5,118.7,117.2V670C788.2,734.7,735,787.2,669.5,787.2z"/>
<g>
	<g>
		<path class="st1" d="M280.1,391.4c-62,0-112.5-50.5-112.5-112.5s50.5-112.5,112.5-112.5s112.5,50.5,112.5,112.5
			S342.1,391.4,280.1,391.4z M280.1,205.1c-40.7,0-73.8,33.1-73.8,73.8s33.1,73.8,73.8,73.8s73.8-33.1,73.8-73.8
			S320.8,205.1,280.1,205.1z"/>
	</g>
	<g>
		<g>
			<path class="st1" d="M429.9,391.4c-4.9,0-9.9-1.9-13.7-5.7c-7.6-7.6-7.6-19.8,0-27.3l186.3-186.3c7.6-7.6,19.8-7.6,27.3,0
				c7.6,7.6,7.6,19.8,0,27.3L443.6,385.7C439.8,389.5,434.9,391.4,429.9,391.4z"/>
		</g>
		<g>
			<path class="st1" d="M616.2,391.4c-4.9,0-9.9-1.9-13.7-5.7L416.3,199.4c-7.6-7.5-7.6-19.8,0-27.3c7.6-7.6,19.8-7.6,27.3,0
				l186.3,186.3c7.6,7.5,7.6,19.8,0,27.3C626.1,389.5,621.2,391.4,616.2,391.4z"/>
		</g>
	</g>
	<g>
		<path class="st1" d="M523.1,634.8c-62,0-112.5-50.5-112.5-112.5s50.5-112.5,112.5-112.5c62,0,112.5,50.5,112.5,112.5
			S585.1,634.8,523.1,634.8z M523.1,448.5c-40.7,0-73.8,33.1-73.8,73.8s33.1,73.8,73.8,73.8c40.7,0,73.8-33.1,73.8-73.8
			S563.8,448.5,523.1,448.5z"/>
	</g>
	<g>
		<g>
			<path class="st1" d="M186.9,634.8c-4.9,0-9.9-1.9-13.7-5.7c-7.6-7.5-7.6-19.8,0-27.3l186.3-186.3c7.6-7.6,19.8-7.6,27.3,0
				c7.6,7.5,7.6,19.8,0,27.3L200.6,629.1C196.8,632.9,191.9,634.8,186.9,634.8z"/>
		</g>
		<g>
			<path class="st1" d="M373.2,634.8c-4.9,0-9.9-1.9-13.7-5.7L173.3,442.9c-7.6-7.5-7.6-19.8,0-27.3c7.6-7.6,19.8-7.6,27.3,0
				l186.3,186.3c7.6,7.5,7.6,19.8,0,27.3C383.1,632.9,378.2,634.8,373.2,634.8z"/>
		</g>
	</g>
</g>
</svg>
