<?xml version="1.0" encoding="utf-8"?>
<!-- Generator: Adobe Illustrator 22.1.0, SVG Export Plug-In . SVG Version: 6.00 Build 0)  -->
<svg version="1.1" id="Слой_1" xmlns="http://www.w3.org/2000/svg" xmlns:xlink="http://www.w3.org/1999/xlink" x="0px" y="0px"
	 viewBox="0 0 200 100" style="enable-background:new 0 0 200 100;" xml:space="preserve">
<style type="text/css">
	.st0{fill:url(#SVGID_1_);}
	.st1{fill:#FFFFFF;}
</style>
<linearGradient id="SVGID_1_" gradientUnits="userSpaceOnUse" x1="25.3251" y1="-25" x2="175.3251" y2="125">
	<stop  offset="0" style="stop-color:#EC77AB"/>
	<stop  offset="0.1392" style="stop-color:#E676AF"/>
	<stop  offset="0.3283" style="stop-color:#D474BA"/>
	<stop  offset="0.5461" style="stop-color:#B870CC"/>
	<stop  offset="0.7833" style="stop-color:#906BE4"/>
	<stop  offset="1" style="stop-color:#6666FF"/>
</linearGradient>
<rect x="0.3" class="st0" width="200" height="100"/>
<g>
	<g>
		<path class="st1" d="M82,48.6c-9.4,0-17-7.7-17-17.2s7.6-17.2,17-17.2s17,7.7,17,17.2S91.3,48.6,82,48.6z M82,20.1
			c-6.1,0-11.2,5.1-11.2,11.3s5,11.3,11.2,11.3c6.1,0,11.2-5.1,11.2-11.3S88.1,20.1,82,20.1z"/>
	</g>
	<g>
		<g>
			<path class="st1" d="M104.6,48.6c-0.7,0-1.5-0.3-2.1-0.9c-1.1-1.2-1.1-3,0-4.2L130.7,15c1.1-1.2,3-1.2,4.1,0c1.1,1.2,1.1,3,0,4.2
				l-28.1,28.5C106.1,48.3,105.4,48.6,104.6,48.6z"/>
		</g>
		<g>
			<path class="st1" d="M132.8,48.6c-0.7,0-1.5-0.3-2.1-0.9l-28.1-28.5c-1.1-1.2-1.1-3,0-4.2c1.1-1.2,3-1.2,4.1,0l28.1,28.5
				c1.1,1.2,1.1,3,0,4.2C134.2,48.3,133.5,48.6,132.8,48.6z"/>
		</g>
	</g>
	<g>
		<path class="st1" d="M118.7,85.8c-9.4,0-17-7.7-17-17.2s7.6-17.2,17-17.2c9.4,0,17,7.7,17,17.2S128,85.8,118.7,85.8z M118.7,57.3
			c-6.1,0-11.2,5.1-11.2,11.3s5,11.3,11.2,11.3c6.1,0,11.2-5.1,11.2-11.3S124.8,57.3,118.7,57.3z"/>
	</g>
	<g>
		<g>
			<path class="st1" d="M67.9,85.8c-0.7,0-1.5-0.3-2.1-0.9c-1.1-1.2-1.1-3,0-4.2L94,52.3c1.1-1.2,3-1.2,4.1,0c1.1,1.2,1.1,3,0,4.2
				L70,85C69.4,85.5,68.6,85.8,67.9,85.8z"/>
		</g>
		<g>
			<path class="st1" d="M96,85.8c-0.7,0-1.5-0.3-2.1-0.9L65.8,56.5c-1.1-1.2-1.1-3,0-4.2c1.1-1.2,3-1.2,4.1,0l28.1,28.5
				c1.1,1.2,1.1,3,0,4.2C97.5,85.5,96.8,85.8,96,85.8z"/>
		</g>
	</g>
</g>
</svg>
