<?xml version="1.0" encoding="UTF-8"?>
<svg width="300px" height="120px" viewBox="0 0 300 120" version="1.1" xmlns="http://www.w3.org/2000/svg" xmlns:xlink="http://www.w3.org/1999/xlink">
    <!-- Generator: Sketch 49.3 (51167) - http://www.bohemiancoding.com/sketch -->
    <title>favicon</title>
    <desc>Created with Sketch.</desc>
    <defs>
        <rect id="path-1" x="0" y="0" width="300" height="120"></rect>
        <radialGradient cx="104.546875%" cy="1.953125%" fx="104.546875%" fy="1.953125%" r="405.175781%" gradientTransform="translate(1.045469,0.019531),scale(0.400000,1.000000),translate(-1.045469,-0.019531)" id="radialGradient-3">
            <stop stop-color="#00FFD1" offset="0%"></stop>
            <stop stop-color="#259EE2" offset="39%"></stop>
            <stop stop-color="#6200FF" offset="100%"></stop>
        </radialGradient>
        <radialGradient cx="245.542427%" cy="-40.9774436%" fx="245.542427%" fy="-40.9774436%" r="579.081633%" id="radialGradient-4">
            <stop stop-color="#FFFFFF" offset="0%"></stop>
            <stop stop-color="#FFFFFF" stop-opacity="0.98" offset="13%"></stop>
            <stop stop-color="#FFFFFF" stop-opacity="0.94" offset="26%"></stop>
            <stop stop-color="#FFFFFF" stop-opacity="0.86" offset="38%"></stop>
            <stop stop-color="#FFFFFF" stop-opacity="0.76" offset="50%"></stop>
            <stop stop-color="#FFFFFF" stop-opacity="0.62" offset="63%"></stop>
            <stop stop-color="#FFFFFF" stop-opacity="0.45" offset="75%"></stop>
            <stop stop-color="#FFFFFF" stop-opacity="0.25" offset="87%"></stop>
            <stop stop-color="#FFFFFF" stop-opacity="0.02" offset="99%"></stop>
            <stop stop-color="#FFFFFF" stop-opacity="0" offset="100%"></stop>
        </radialGradient>
        <radialGradient cx="137.519526%" cy="-40.9463005%" fx="137.519526%" fy="-40.9463005%" r="579.100916%" gradientTransform="translate(1.375195,-0.409463),scale(1.000000,0.999744),translate(-1.375195,0.409463)" id="radialGradient-5">
            <stop stop-color="#FFFFFF" offset="0%"></stop>
            <stop stop-color="#FFFFFF" stop-opacity="0.98" offset="13%"></stop>
            <stop stop-color="#FFFFFF" stop-opacity="0.94" offset="26%"></stop>
            <stop stop-color="#FFFFFF" stop-opacity="0.86" offset="38%"></stop>
            <stop stop-color="#FFFFFF" stop-opacity="0.76" offset="50%"></stop>
            <stop stop-color="#FFFFFF" stop-opacity="0.62" offset="63%"></stop>
            <stop stop-color="#FFFFFF" stop-opacity="0.45" offset="75%"></stop>
            <stop stop-color="#FFFFFF" stop-opacity="0.25" offset="87%"></stop>
            <stop stop-color="#FFFFFF" stop-opacity="0.02" offset="99%"></stop>
            <stop stop-color="#FFFFFF" stop-opacity="0" offset="100%"></stop>
        </radialGradient>
        <radialGradient cx="137.512746%" cy="-40.892541%" fx="137.512746%" fy="-40.892541%" r="579.051182%" gradientTransform="translate(1.375127,-0.408925),scale(1.000000,0.999450),translate(-1.375127,0.408925)" id="radialGradient-6">
            <stop stop-color="#FFFFFF" offset="0%"></stop>
            <stop stop-color="#FFFFFF" stop-opacity="0.98" offset="13%"></stop>
            <stop stop-color="#FFFFFF" stop-opacity="0.94" offset="26%"></stop>
            <stop stop-color="#FFFFFF" stop-opacity="0.86" offset="38%"></stop>
            <stop stop-color="#FFFFFF" stop-opacity="0.76" offset="50%"></stop>
            <stop stop-color="#FFFFFF" stop-opacity="0.62" offset="63%"></stop>
            <stop stop-color="#FFFFFF" stop-opacity="0.45" offset="75%"></stop>
            <stop stop-color="#FFFFFF" stop-opacity="0.25" offset="87%"></stop>
            <stop stop-color="#FFFFFF" stop-opacity="0.02" offset="99%"></stop>
            <stop stop-color="#FFFFFF" stop-opacity="0" offset="100%"></stop>
        </radialGradient>
        <radialGradient cx="137.540279%" cy="-149.194415%" fx="137.540279%" fy="-149.194415%" r="579.081633%" id="radialGradient-7">
            <stop stop-color="#FFFFFF" offset="0%"></stop>
            <stop stop-color="#FFFFFF" stop-opacity="0.98" offset="13%"></stop>
            <stop stop-color="#FFFFFF" stop-opacity="0.94" offset="26%"></stop>
            <stop stop-color="#FFFFFF" stop-opacity="0.86" offset="38%"></stop>
            <stop stop-color="#FFFFFF" stop-opacity="0.76" offset="50%"></stop>
            <stop stop-color="#FFFFFF" stop-opacity="0.62" offset="63%"></stop>
            <stop stop-color="#FFFFFF" stop-opacity="0.45" offset="75%"></stop>
            <stop stop-color="#FFFFFF" stop-opacity="0.25" offset="87%"></stop>
            <stop stop-color="#FFFFFF" stop-opacity="0.02" offset="99%"></stop>
            <stop stop-color="#FFFFFF" stop-opacity="0" offset="100%"></stop>
        </radialGradient>
        <radialGradient cx="245.574718%" cy="-149.111674%" fx="245.574718%" fy="-149.111674%" r="579.128552%" gradientTransform="translate(2.455747,-1.491117),scale(1.000000,0.999587),translate(-2.455747,1.491117)" id="radialGradient-8">
            <stop stop-color="#FFFFFF" offset="0%"></stop>
            <stop stop-color="#FFFFFF" stop-opacity="0.98" offset="13%"></stop>
            <stop stop-color="#FFFFFF" stop-opacity="0.94" offset="26%"></stop>
            <stop stop-color="#FFFFFF" stop-opacity="0.86" offset="38%"></stop>
            <stop stop-color="#FFFFFF" stop-opacity="0.76" offset="50%"></stop>
            <stop stop-color="#FFFFFF" stop-opacity="0.62" offset="63%"></stop>
            <stop stop-color="#FFFFFF" stop-opacity="0.45" offset="75%"></stop>
            <stop stop-color="#FFFFFF" stop-opacity="0.25" offset="87%"></stop>
            <stop stop-color="#FFFFFF" stop-opacity="0.02" offset="99%"></stop>
            <stop stop-color="#FFFFFF" stop-opacity="0" offset="100%"></stop>
        </radialGradient>
        <radialGradient cx="245.545896%" cy="-149.206499%" fx="245.545896%" fy="-149.206499%" r="579.10971%" gradientTransform="translate(2.455459,-1.492065),scale(0.999876,1.000000),translate(-2.455459,1.492065)" id="radialGradient-9">
            <stop stop-color="#FFFFFF" offset="0%"></stop>
            <stop stop-color="#FFFFFF" stop-opacity="0.98" offset="13%"></stop>
            <stop stop-color="#FFFFFF" stop-opacity="0.94" offset="26%"></stop>
            <stop stop-color="#FFFFFF" stop-opacity="0.86" offset="38%"></stop>
            <stop stop-color="#FFFFFF" stop-opacity="0.76" offset="50%"></stop>
            <stop stop-color="#FFFFFF" stop-opacity="0.62" offset="63%"></stop>
            <stop stop-color="#FFFFFF" stop-opacity="0.45" offset="75%"></stop>
            <stop stop-color="#FFFFFF" stop-opacity="0.25" offset="87%"></stop>
            <stop stop-color="#FFFFFF" stop-opacity="0.02" offset="99%"></stop>
            <stop stop-color="#FFFFFF" stop-opacity="0" offset="100%"></stop>
        </radialGradient>
    </defs>
    <g id="Page-1" stroke="none" stroke-width="1" fill="none" fill-rule="evenodd">
        <g id="favicon">
            <mask id="mask-2" fill="white">
                <use xlink:href="#path-1"></use>
            </mask>
            <use id="Mask" fill="#D8D8D8" xlink:href="#path-1"></use>
            <g mask="url(#mask-2)" fill-rule="nonzero">
                <rect id="Rectangle-path" fill="url(#radialGradient-3)" x="0" y="0" width="300" height="120"></rect>
                <path d="M129.89,58.47 C119.606458,58.47 111.27,50.133542 111.27,39.85 C111.27,29.566458 119.606458,21.23 129.89,21.23 C140.173542,21.23 148.51,29.566458 148.51,39.85 C148.498977,50.1289727 140.168973,58.458977 129.89,58.47 Z M129.89,27.63 C123.14108,27.63 117.67,33.1010804 117.67,39.85 C117.67,46.5989196 123.14108,52.07 129.89,52.07 C136.63892,52.07 142.11,46.5989196 142.11,39.85 C142.104486,33.1033657 136.636634,27.6355142 129.89,27.63 Z" id="Shape" fill="url(#radialGradient-4)"></path>
                <path d="M154.69,58.47 C153.397756,58.4621399 152.236228,57.6801545 151.74277,56.4858116 C151.249312,55.2914688 151.520155,53.9176808 152.43,53 L183.27,22.16 C184.520925,20.9090752 186.549075,20.9090752 187.8,22.1600001 C189.050925,23.410925 189.050925,25.439075 187.8,26.69 L157,57.53 C156.386265,58.1389999 155.554578,58.4774353 154.69,58.47 Z" id="Shape" fill="url(#radialGradient-5)"></path>
                <path d="M185.53,58.47 C184.68252,58.4652919 183.870841,58.1276909 183.27,57.53 L152.43,26.69 C151.620793,25.8736481 151.308574,24.6876013 151.610952,23.5786319 C151.913331,22.4696625 152.784368,21.6062494 153.895952,21.3136319 C155.007537,21.0210144 156.190793,21.3436481 157,22.16 L187.8,53 C188.401499,53.6002991 188.739519,54.4151999 188.739519,55.265 C188.739519,56.1148001 188.401499,56.9297009 187.8,57.53 C187.196087,58.1292025 186.380732,58.4668388 185.53,58.47 Z" id="Shape" fill="url(#radialGradient-6)"></path>
                <path d="M170.11,98.77 C159.826458,98.77 151.49,90.433542 151.49,80.15 C151.49,69.866458 159.826458,61.53 170.11,61.53 C180.393542,61.53 188.73,69.866458 188.73,80.15 C188.718977,90.4289727 180.388973,98.758977 170.11,98.77 Z M170.11,67.93 C163.36108,67.93 157.89,73.4010804 157.89,80.15 C157.89,86.8989196 163.36108,92.37 170.11,92.37 C176.85892,92.37 182.33,86.8989196 182.33,80.15 C182.318989,73.4056466 176.854353,67.9410112 170.11,67.93 Z" id="Shape" fill="url(#radialGradient-7)"></path>
                <path d="M114.47,98.77 C113.175603,98.7718296 112.007584,97.9936836 111.510671,96.7984665 C111.013758,95.6032493 111.28583,94.226384 112.2,93.31 L143,62.47 C144.250925,61.2080293 146.288029,61.199075 147.55,62.45 C148.811971,63.700925 148.820925,65.7380293 147.57,67 L116.73,97.84 C116.128147,98.4349399 115.316274,98.7690292 114.47,98.77 Z" id="Shape" fill="url(#radialGradient-8)"></path>
                <path d="M145.31,98.77 C144.460476,98.7705794 143.644924,98.4364548 143.04,97.84 L112.2,67 C110.949075,65.749075 110.949075,63.720925 112.2,62.47 C113.450925,61.2190751 115.479075,61.2190751 116.73,62.47 L147.57,93.31 C148.482886,94.2250954 148.755595,95.599538 148.261246,96.7938493 C147.766898,97.9881605 146.602577,98.7677883 145.31,98.77 Z" id="Shape" fill="url(#radialGradient-9)"></path>
            </g>
        </g>
    </g>
</svg>