<?xml version="1.0" standalone="no"?>
<!DOCTYPE svg PUBLIC "-//W3C//DTD SVG 1.1//EN" "http://www.w3.org/Graphics/SVG/1.1/DTD/svg11.dtd">
<svg xmlns="http://www.w3.org/2000/svg">
<metadata>Copyright (C) 2018 by original authors @ fontello.com</metadata>
<defs>
<font id="fontello" horiz-adv-x="1000" >
<font-face font-family="fontello" font-weight="400" font-stretch="normal" units-per-em="1000" ascent="850" descent="-150" />
<missing-glyph horiz-adv-x="1000" />
<glyph glyph-name="warning" unicode="&#xe800;" d="M905 77c8-14 11-30 11-45 0-53-41-91-90-91l-735 0c-48 0-91 40-91 91 0 15 4 31 13 45l368 637c15 28 44 45 78 45 32 0 61-17 77-45z m-512 472l0-299 133 0 0 299-133 0z m67-369c-42 0-75-32-75-76 0-41 33-74 75-74s75 33 75 74c0 43-32 76-75 76z" horiz-adv-x="916" />

<glyph glyph-name="info" unicode="&#xe801;" d="M469 78l0 349-121 0 0-349 121 0z m-61 410c40 0 71 31 71 72 0 39-31 70-71 70s-72-31-72-70c0-40 32-72 72-72z m-2 269c224 0 407-182 407-407 0-223-183-406-407-406-225 0-406 183-406 406 0 225 181 407 406 407z" horiz-adv-x="813" />

<glyph glyph-name="arrow-left" unicode="&#xe802;" d="M542 584l-235-211c-13-11-14-31-2-44 1-1 1-1 2-2l235-211c12-12 32-11 44 2 5 6 8 13 8 21l0 422c0 17-14 31-31 31-8 0-16-2-21-8z" horiz-adv-x="1000" />

<glyph glyph-name="key" unicode="&#xe803;" d="M1111 204c129 54 189 202 135 329-54 127-202 186-331 131-129-55-190-202-136-329 54-128 203-186 332-131z m-430 41l-266-130-242-118-18-9c-35-17-77-2-94 33-17 34-2 77 33 94l540 263c-24 166 66 334 230 404 193 82 415-6 496-197 81-190-10-412-203-494-179-75-382-7-476 154z m-207-42l97-190c16-31 4-68-27-84-31-16-69-4-84 27l-97 190c-16 31-4 69 27 84 31 16 69 4 84-27z m-181-64l59-115c15-31 3-69-28-84-30-16-68-4-84 27l-58 115c-16 31-3 68 27 84 31 16 69 3 84-27z" horiz-adv-x="1417" />

<glyph glyph-name="arrow-down" unicode="&#xe804;" d="M266 392l211-235c11-13 31-14 44-2 1 1 2 1 2 2l211 235c12 12 11 32-2 44-6 5-13 8-21 8l-422 0c-17 0-31-14-31-31 0-8 3-16 8-21z" horiz-adv-x="1000" />

<glyph glyph-name="arrow-right" unicode="&#xe805;" d="M458 584l235-211c13-11 14-31 2-44 0-1-1-1-2-2l-235-211c-12-12-32-11-44 2-5 6-8 13-8 21l0 422c0 17 14 31 32 31 7 0 15-2 20-8z" horiz-adv-x="1000" />

<glyph glyph-name="arrow-up" unicode="&#xe806;" d="M266 308l211 235c11 13 31 14 44 2 1 0 2-1 2-2l211-235c12-12 11-32-2-44-6-5-13-8-21-8l-422 0c-17 0-31 14-31 32 0 7 3 15 8 20z" horiz-adv-x="1000" />

<glyph glyph-name="check" unicode="&#xe807;" d="M491 33l755 782c22 24 60 24 83 2 23-23 24-60 1-84l-789-817c-2-4-5-7-9-10-23-23-60-22-83 1l-388 402c-23 24-22 61 1 83 24 23 61 22 84-1l345-358z" horiz-adv-x="1412" />

<glyph glyph-name="clock" unicode="&#xe808;" d="M585 404l156 1c29 2 56-26 58-55 3-29-18-54-48-57l-169 1c-19-30-51-47-82-44-63 5-104 53-100 100 2 31 15 56 33 74l-1 184c-3 29 26 55 55 57 29 3 54-18 56-48l-1-178c18-8 33-20 43-35z m-85-554c-276 0-500 224-500 500 0 276 224 500 500 500 276 0 500-224 500-500 0-276-224-500-500-500z m-400 500c0-220 180-400 400-400 221 0 400 180 400 400 0 221-179 400-400 400-220 0-400-179-400-400z" horiz-adv-x="1000" />

<glyph glyph-name="close" unicode="&#xe809;" d="M462 350l-410 409c-11 12-11 31 0 43 12 12 31 12 43 0l410-410 405 406c12 12 31 12 43 0 12-12 12-31 0-43l-406-405 406-406c12-12 12-31 0-42-12-12-31-12-43 0l-405 405-410-410c-12-12-31-12-43 0-11 12-11 31 0 43l410 410z" horiz-adv-x="1000" />

<glyph glyph-name="cloud" unicode="&#xe80a;" d="M1556 169c0 108-59 203-146 253-5 237-199 428-438 428-157 0-295-83-372-207-28 8-58 13-90 13-135 0-250-86-295-205-124-34-215-147-215-282 0-160 131-291 292-291l972 0c161 0 292 130 292 291z m-1263 195c12 109 105 194 217 194 52 0 99-17 136-47 43 140 173 242 326 242 188 0 341-153 341-340 0-19-2-37-5-54 86-20 150-98 150-190 0-107-87-194-194-194l-972 0c-108 0-195 87-195 194 0 108 87 195 195 195l1 0z" horiz-adv-x="1556" />

<glyph glyph-name="telegram" unicode="&#xe80b;" d="M500-150c276 0 500 224 500 500 0 276-224 500-500 500-276 0-500-224-500-500 0-276 224-500 500-500z m16 381c-19-19-38-38-57-56-6-7-14-10-23-10-7 1-10 3-12 9-15 45-30 90-44 135-1 5-4 7-8 8-34 11-68 21-102 32-5 2-11 4-15 7-7 5-8 12-2 18 6 5 13 10 20 12 42 17 84 33 125 49 107 41 213 82 319 123 21 8 36-3 34-25-1-14-5-28-8-41-23-109-46-218-69-327-6-26-24-33-45-17-36 26-72 52-107 79-2 1-4 2-6 4z m-80-34c1 1 1 1 2 1 0 1 0 2 0 3 3 25 5 49 7 74 0 5 2 9 6 13 33 29 66 59 99 89 36 32 72 65 108 98 2 2 3 5 5 8-3 0-7 2-10 1-4-1-8-4-12-6-80-50-160-101-240-151-5-3-5-5-4-10 6-17 12-34 17-51 8-23 15-46 22-69z" horiz-adv-x="1000" />

<glyph glyph-name="info-1" unicode="&#xe80c;" d="M605 534c15 0 27-12 27-26l0-316c0-14-12-26-27-26-14 0-26 12-26 26l0 316c0 14 12 26 26 26z m0-421c15 0 27-12 27-26l0-53c0-14-12-26-27-26-14 0-26 12-26 26l0 53c0 14 12 26 26 26z" horiz-adv-x="1211" />

<glyph glyph-name="dir-down" unicode="&#xe80d;" d="M434 49l-353 353c-9 9-20 14-33 14-13 0-25-5-34-14-19-19-19-49 0-68l434-434c9-9 22-14 34-14 13 0 25 5 34 14l434 434c18 19 19 49 0 68-18 18-49 18-67 0l-353-353 0 753c0 27-21 48-48 48-26 0-48-21-48-48l0-753z" horiz-adv-x="1000" />

<glyph glyph-name="dir-left" unicode="&#xe80e;" d="M163 320l353-353c9-9 14-21 14-33 0-13-5-25-14-34-19-19-49-19-68 0l-434 434c-9 9-14 22-14 34 0 13 5 25 14 34l434 434c19 18 49 19 68 0 18-18 18-49 0-67l-353-353 753 0c27 0 48-21 48-48 0-26-21-48-48-48l-753 0z" horiz-adv-x="1000" />

<glyph glyph-name="dir-right" unicode="&#xe80f;" d="M801 415l-353 353c-9 10-14 21-14 34 0 13 5 25 14 34 19 19 49 19 68 0l434-434c9-9 14-22 14-34 0-13-5-25-14-34l-434-434c-19-18-49-19-68 0-18 18-18 48 0 67l353 353-753 0c-27 0-48 21-48 48 0 26 21 47 48 47l753 0z" horiz-adv-x="1000" />

<glyph glyph-name="dir-up" unicode="&#xe810;" d="M455 652l-333-334c-9-8-20-13-32-13-12 0-23 5-32 13-18 18-18 46 0 64l410 410c8 8 20 13 32 13 12 0 24-5 32-13l410-410c17-18 17-46 0-64-17-17-46-17-64 0l-333 334 0-712c0-25-20-45-45-45-25 0-45 20-45 45l0 712z" horiz-adv-x="1000" />

<glyph glyph-name="page" unicode="&#xe811;" d="M463 550l-231 0c-22 0-39 17-39 38 0 20 17 37 39 37l231 0c21 0 38-17 38-37 0-21-17-38-38-38z m152-157l-383 0c-22 0-39 17-39 37 0 21 17 38 39 38l383 0c21 0 39-17 39-38 0-20-18-37-39-37z m2-157l-383 0c-22 0-39 17-39 37 0 21 17 38 39 38l383 0c21 0 39-17 39-38 0-20-18-37-39-37z m-2-157l-383 0c-22 0-39 17-39 37 0 21 17 38 39 38l383 0c21 0 39-17 39-38 0-20-18-37-39-37z m-510 695c-7 0-13-6-13-12l0-815c0-6 6-12 13-12l641 0c7 0 13 6 13 12l0 815c0 6-6 12-13 12l-641 0z m641-914l-641 0c-50 0-90 39-90 87l0 815c0 48 40 87 90 87l641 0c50 0 90-39 90-87l0-815c0-48-40-87-90-87z" horiz-adv-x="850" />

<glyph glyph-name="filter" unicode="&#xe812;" d="M54 707l946 0 0-107-946 0c-30 0-54 24-54 54 0 29 24 53 54 53z m1303 0l232 0c30 0 54-24 54-53 0-30-24-54-54-54l-232 0 0 107z m-714-607l946 0c30 0 54-24 54-54 0-29-24-53-54-53l-946 0 0 107z m-589 0l232 0 0-107-232 0c-30 0-54 24-54 53 0 30 24 54 54 54z m1071 729l107 0c30 0 54-24 54-54l0-250c0-30-24-54-54-54l-107 0c-30 0-54 24-54 54l0 250c0 30 24 54 54 54z m-714-600l107 0c29 0 53-24 53-54l0-250c0-30-24-54-53-54l-107 0c-30 0-54 24-54 54l0 250c0 30 24 54 54 54z" horiz-adv-x="1643" />

<glyph glyph-name="folder" unicode="&#xe813;" d="M101 746l0-756c1-16 8-44 51-45 104-3 939-1 947-1 24 1 37 17 37 47l0 548c0 1-1 17-11 28-8 7-22 11-41 11-100 0-521 2-521 2-12 0-23 4-31 12l-164 154-267 0z m529-891c-213 0-429 1-480 2-102 2-139 81-139 133l0 800c0 24 20 44 45 44l330 0c12 0 23-5 31-12l164-154c82 0 415-1 503-1 56 0 89-22 107-40 36-37 35-85 35-90l0-546c0-52-21-83-38-100-36-34-83-35-89-35 0 0 0 0 0 0-18 0-242-1-469-1z" horiz-adv-x="1235" />

<glyph glyph-name="home" unicode="&#xe814;" d="M452-103l0 201c14 71 52 106 113 106 62 0 99-35 113-106l0-201c0-26 21-47 47-47l189 0c26 0 47 21 47 47l0 424 90 0c26 0 47 21 47 47 0 13-6 26-16 35l-486 420c-18 16-44 16-62 0l-485-420c-20-17-22-46-5-66 9-10 22-16 35-16l91 0 0-424c0-26 21-47 47-47l188 0c26 0 47 21 47 47z" horiz-adv-x="1130" />

<glyph glyph-name="menu" unicode="&#xe816;" d="M71 850c40 0 72-32 72-71 0-40-32-72-72-72-39 0-71 32-71 72 0 39 32 71 71 71z m0-429c40 0 72-32 72-71 0-39-32-71-72-71-39 0-71 32-71 71 0 39 32 71 71 71z m0-428c40 0 72-32 72-72 0-39-32-71-72-71-39 0-71 32-71 71 0 40 32 72 71 72z" horiz-adv-x="143" />

<glyph glyph-name="bell" unicode="&#xe817;" d="M804 333l0 114c-1 158-111 295-265 332l-49 8 0 19c0 18-15 33-33 33-19 0-34-15-34-33l0-19-47-6c-158-35-270-174-268-334l0-114c0-66-16-131-45-190l-49-100c-5-11-4-23 2-32 6-10 17-16 28-16l252 0 2-8c16-74 82-126 158-126 76 0 142 52 158 126l2 8 9 0 244 0c11 0 22 6 28 16 6 9 7 21 2 32l-50 99c-29 60-45 125-45 191z m-347-409c-38 0-73 23-87 57l-7 15 187 0-6-15c-15-34-49-57-87-57z m-352 153l19 37c33 68 51 143 51 219l0 114c-1 127 87 238 215 269 28 5 49 7 64 7 16 0 40-2 72-8 126-30 214-141 213-268l0-114c0-76 18-151 52-219l26-52-720 0 8 15z" horiz-adv-x="913" />

<glyph glyph-name="star" unicode="&#xe818;" d="M500-94c246 0 444 199 444 444 0 246-198 444-444 444-245 0-444-198-444-444 0-245 199-444 444-444z m0-56c-276 0-500 224-500 500 0 276 224 500 500 500 276 0 500-224 500-500 0-276-224-500-500-500z m0 152c192 0 348 156 348 348 0 192-156 348-348 348-192 0-348-156-348-348 0-192 156-348 348-348z m0 200l-204-133 64 235-191 154 244 11 87 229 87-229 244-11-191-154 64-235-204 133z" horiz-adv-x="1000" />

<glyph glyph-name="search" unicode="&#xe819;" d="M635 165c-66-55-148-85-235-85-203 0-370 167-370 370 0 204 167 370 370 370 204 0 370-166 370-370 0-86-30-168-84-234l193-194c7-7 11-16 11-25 0-10-4-19-11-26-7-7-16-11-26-11-10 0-19 4-24 11l-194 194z m-235-5c160 0 290 131 290 290 0 160-130 290-290 290-159 0-290-130-290-290 0-159 131-290 290-290z" horiz-adv-x="1000" />

<glyph glyph-name="setting" unicode="&#xe81a;" d="M601-119c0-16-15-29-31-29l-160 0c-16 0-31 13-31 28l-5 88c-24 8-45 17-64 27l-67-59c-12-9-29-9-42 1l-114 114c-12 12-12 31 0 43l58 65c-10 19-19 40-26 65l-90 7c-16 0-29 15-29 31l0 159c0 16 13 31 28 31l89 5c7 24 16 45 26 64l-59 67c-9 12-9 29 1 42l114 114c12 12 31 12 43 0l66-59c19 11 40 19 64 27l7 90c0 16 15 28 31 28l160 0c16 0 31-12 31-28l5-88c24-8 45-16 64-27l67 60c12 8 29 8 42-1l114-114c12-12 12-31 1-43l-59-66c10-19 19-40 27-64l87-5c16 0 29-15 29-31l0-159c0-16-13-31-28-31l-88-6c-8-24-17-45-27-64l59-66c9-12 9-29-1-42l-114-114c-12-12-31-12-42 0l-67 58c-19-10-40-19-64-27l-5-91z m-61 33l5 81c0 13 10 25 24 28 30 7 60 20 90 37 12 6 27 5 36-3l62-55 72 71-55 61c-9 10-10 25-3 38 16 25 28 55 36 88 3 12 14 21 28 24l82 6 0 101-81 5c-14 0-26 10-29 24-7 30-20 60-37 90-6 12-5 27 4 36l55 62-72 71-61-54c-10-10-25-11-38-4-25 16-55 28-89 37-11 3-20 13-24 28l-3 83-102 0-5-81c0-14-10-26-24-28-29-8-60-21-90-37-12-7-27-6-36 3l-62 55-71-71 54-62c10-9 11-24 4-37-16-25-28-55-37-89-3-11-13-20-28-24l-83-5 0-101 81-6c13 0 25-10 28-24 8-29 20-60 37-89 7-12 6-27-3-36l-55-62 71-71 62 54c9 9 24 10 37 4 25-16 55-28 89-37 12-3 21-14 24-28l5-83 102 0z m-49 275c-84 0-152 68-152 152 0 85 68 153 152 153 85 0 153-68 153-153 0-84-68-152-153-152z m0 239c-48 0-87-38-87-87 0-48 39-87 87-87 49 0 87 39 87 87 0 49-38 87-87 87z" horiz-adv-x="1000" />

<glyph glyph-name="mail" unicode="&#xe81b;" d="M1361 679c42 31 76 14 76-37l0-683c0-51-43-93-96-93l-622 0-623 0c-53 0-96 42-96 93l0 683c0 51 34 68 76 37l566-417c21-15 49-22 77-22 27 0 55 7 76 22l566 417z m-1247 104c-42 32-32 58 20 58l585 0 584 0c52 0 62-26 20-58l-517-397c-24-18-56-26-87-24-32-2-64 6-88 24l-517 397z" horiz-adv-x="1444" />

<glyph glyph-name="link" unicode="&#xe81c;" d="M594 141l-156-147c-83-75-214-77-292-4-36 33-55 80-55 131 1 52 23 100 60 133l172 154c18 17 19 44 2 61-17 18-46 19-65 2l-172-154c-55-49-87-120-88-195-1-74 29-145 82-194 55-52 129-78 204-78 77 0 155 27 216 82l156 148c18 16 18 44 0 61-17 17-46 17-64 0m408 631c53-49 82-120 81-194-1-75-33-146-88-195l-172-154c-9-8-20-12-31-12-12 0-25 5-34 14-17 17-16 45 2 61l173 154c37 33 58 81 59 133 1 51-19 98-54 131-78 73-209 71-293-4l-155-147c-18-17-47-17-65 0-18 17-18 45 0 62l157 147c119 108 307 110 420 4z m-353-265c19 17 47 16 65-2 17-17 16-44-2-61l-283-251c-9-8-20-12-31-12-12 0-24 5-33 14-18 18-17 45 2 61l282 251z" horiz-adv-x="1083" />

<glyph glyph-name="qr-code" unicode="&#xe81d;" d="M693 779l178 0c32 0 58-26 58-58l0-180m0-398l0-164c0-32-26-58-58-58l-169 0m-399 0l-174 0c-32 0-58 26-58 58l0 168m0 400l0 174c0 32 26 58 58 58l171 0" horiz-adv-x="1000" />

<glyph glyph-name="viber" unicode="&#xe81f;" d="M558 500c19-4 34-11 47-23 16-16 25-34 29-61 3-18 2-25-4-31-6-5-17-5-23 0-5 4-7 7-8 17-1 14-3 23-7 32-9 19-24 29-50 32-13 1-16 3-20 7-7 9-5 23 5 28 4 2 6 2 14 1 5 0 13-1 17-2z m-21 75c60-9 106-37 137-82 17-25 27-55 31-87 1-12 1-34 0-37-1-3-5-8-9-10-4-2-12-2-17 1-7 4-9 10-9 26 0 26-7 53-19 74-13 24-32 43-55 57-20 12-49 21-76 23-9 1-15 3-18 7-6 6-7 15-2 22 5 8 13 9 37 6z m-233 61c4-1 9-4 12-6 19-13 71-79 88-113 10-19 13-33 10-43-3-12-8-18-32-36-9-8-18-16-19-18-4-5-7-15-7-22 0-17 11-47 25-70 11-17 30-40 50-58 22-21 42-35 65-46 29-14 46-18 59-12 4 2 7 4 8 4 1 1 9 11 17 21 16 20 20 23 31 27 14 5 28 3 42-4 11-5 35-20 50-31 20-14 63-49 69-56 10-13 12-29 5-47-7-19-35-54-55-69-18-14-31-19-48-20-14 0-19 1-37 8-139 57-250 143-338 260-46 61-81 124-104 190-14 38-15 55-4 75 5 8 26 29 42 40 25 19 37 26 46 28 7 1 18 0 25-2z m226 10c34-4 61-12 92-27 29-14 48-28 73-53 24-24 37-41 51-69 19-39 30-85 32-135 1-18 0-22-4-26-7-10-24-8-30 2-1 4-2 7-2 21-1 21-3 35-6 51-12 64-42 116-92 152-41 31-83 46-139 49-18 2-22 2-26 5-8 7-8 21-1 28 5 4 8 5 25 4 8 0 20-1 27-2z m-30 204c276 0 500-224 500-500s-224-500-500-500-500 224-500 500 224 500 500 500z" horiz-adv-x="1000" />

<glyph glyph-name="success" unicode="&#xe820;" d="M500-150c-276 0-500 224-500 500 0 276 224 500 500 500 276 0 500-224 500-500 0-276-224-500-500-500z m245 683l-309-316-133 137c-9 9-24 9-34 0-9-9-9-24 0-33l150-154c9-10 25-10 34 0l326 333c9 9 9 25 0 34-10 9-25 9-34-1z" horiz-adv-x="1000" />

<glyph glyph-name="top" unicode="&#xe821;" d="M99 482c-14-14-37-14-51 0-7 7-10 16-10 25 0 9 3 19 10 26l301 300c7 7 16 11 25 11 10 0 19-4 26-11l294-300c14-14 14-37 0-51-14-13-37-13-51 1l-234 238 0-645c0-19-16-35-36-35-19 0-35 16-35 35l0 645-239-239z m608-538c19 0 35-16 35-35 0-20-16-36-35-36l-667 0c-20 0-36 16-36 36 0 19 16 35 36 35l667 0z" horiz-adv-x="762" />

<glyph glyph-name="share" unicode="&#xe822;" d="M688 112h-488v351h112c0 0 28 38 84 75h-233c-21 0-38-17-38-38v-425c0-21 17-38 38-38h562c21 0 38 17 38 38v213l-75-62v-114z m-63 301v-125l250 186-250 189v-117c-302 0-312-321-312-321 85 140 148 188 312 188z" horiz-adv-x="1000" />
</font>
</defs>
</svg>
