<?xml version="1.0" encoding="UTF-8"?>
<svg width="78px" height="86px" viewBox="0 0 78 86" version="1.1" xmlns="http://www.w3.org/2000/svg" xmlns:xlink="http://www.w3.org/1999/xlink">
    <!-- Generator: Sketch 48.2 (47327) - http://www.bohemiancoding.com/sketch -->
    <title>app</title>
    <desc>Created with Sketch.</desc>
    <defs></defs>
    <g id="Page-1" stroke="none" stroke-width="1" fill="none" fill-rule="evenodd">
        <g id="app" fill="#5C96BE" fill-rule="nonzero">
            <path d="M39,35.1 C17.13075,35.1 0,27.39165 0,17.55 C0,7.70835 17.13075,0 39,0 C60.86925,0 78,7.70835 78,17.55 C78,27.39165 60.86925,35.1 39,35.1 Z M39,3.9 C22.3977,3.9 3.9,9.50625 3.9,17.55 C3.9,25.59375 22.3977,31.2 39,31.2 C55.6023,31.2 74.1,25.59375 74.1,17.55 C74.1,9.50625 55.6023,3.9 39,3.9 Z" id="Shape"></path>
            <path d="M39,50.7 C17.13075,50.7 0,42.99165 0,33.15 L0,17.55 C0,16.47165 0.87165,15.6 1.95,15.6 C3.02835,15.6 3.9,16.47165 3.9,17.55 L3.9,33.15 C3.9,41.19375 22.3977,46.8 39,46.8 C55.6023,46.8 74.1,41.19375 74.1,33.15 L74.1,17.55 C74.1,16.47165 74.97165,15.6 76.05,15.6 C77.12835,15.6 78,16.47165 78,17.55 L78,33.15 C78,42.99165 60.86925,50.7 39,50.7 Z" id="Shape"></path>
            <path d="M39,68.25 C17.13075,68.25 0,60.54165 0,50.7 L0,33.15 C0,32.07165 0.87165,31.2 1.95,31.2 C3.02835,31.2 3.9,32.07165 3.9,33.15 L3.9,50.7 C3.9,58.74375 22.3977,64.35 39,64.35 C55.6023,64.35 74.1,58.74375 74.1,50.7 L74.1,33.15 C74.1,32.07165 74.97165,31.2 76.05,31.2 C77.12835,31.2 78,32.07165 78,33.15 L78,50.7 C78,60.54165 60.86925,68.25 39,68.25 Z" id="Shape"></path>
            <path d="M39,85.8 C17.13075,85.8 0,78.09165 0,68.25 L0,50.7 C0,49.62165 0.87165,48.75 1.95,48.75 C3.02835,48.75 3.9,49.62165 3.9,50.7 L3.9,68.25 C3.9,76.29375 22.3977,81.9 39,81.9 C55.6023,81.9 74.1,76.29375 74.1,68.25 L74.1,50.7 C74.1,49.62165 74.97165,48.75 76.05,48.75 C77.12835,48.75 78,49.62165 78,50.7 L78,68.25 C78,78.09165 60.86925,85.8 39,85.8 Z" id="Shape"></path>
        </g>
    </g>
</svg>