<?xml version="1.0" encoding="UTF-8"?>
<svg width="78px" height="78px" viewBox="0 0 78 78" version="1.1" xmlns="http://www.w3.org/2000/svg" xmlns:xlink="http://www.w3.org/1999/xlink">
    <!-- Generator: Sketch 48.2 (47327) - http://www.bohemiancoding.com/sketch -->
    <title>bag</title>
    <desc>Created with Sketch.</desc>
    <defs></defs>
    <g id="Page-1" stroke="none" stroke-width="1" fill="none" fill-rule="evenodd">
        <path d="M72.4285714,22.2857143 L61.2857143,22.2857143 L61.2857143,21.5022321 C61.2857143,9.57589286 51.7098214,0 39.7834821,0 L38.390625,0 C26.4642857,0 16.7142857,9.57589286 16.7142857,21.5022321 L16.7142857,22.2857143 L5.57142857,22.2857143 L0,78 L78,78 L72.4285714,22.2857143 Z M22.2857143,21.5022321 C22.2857143,12.675 29.5633929,5.57142857 38.390625,5.57142857 L39.6964286,5.57142857 L39.7834821,5.57142857 C48.6107143,5.57142857 55.7142857,12.675 55.7142857,21.5022321 L55.7142857,22.2857143 L22.2857143,22.2857143 L22.2857143,21.5022321 Z M6.23303571,72.4285714 L10.5683036,27.8571429 L16.7142857,27.8571429 L16.7142857,34.1772321 C15.0428571,35.1348214 13.9285714,36.9455357 13.9285714,39 C13.9285714,42.0816964 16.4183036,44.5714286 19.5,44.5714286 C22.5816964,44.5714286 25.0714286,42.0816964 25.0714286,39 C25.0714286,36.9455357 23.9571429,35.1348214 22.2857143,34.1772321 L22.2857143,27.8571429 L55.7142857,27.8571429 L55.7142857,34.1772321 C54.0428571,35.1348214 52.9285714,36.9455357 52.9285714,39 C52.9285714,42.0816964 55.4183036,44.5714286 58.5,44.5714286 C61.5816964,44.5714286 64.0714286,42.0816964 64.0714286,39 C64.0714286,36.9455357 62.9571429,35.1348214 61.2857143,34.1772321 L61.2857143,27.8571429 L67.4491071,27.8571429 L71.784375,72.4285714 L6.23303571,72.4285714 Z" id="bag" fill="#99C0DD" fill-rule="nonzero"></path>
    </g>
</svg>