<?xml version="1.0" encoding="UTF-8"?>
<svg width="75px" height="74px" viewBox="0 0 75 74" version="1.1" xmlns="http://www.w3.org/2000/svg" xmlns:xlink="http://www.w3.org/1999/xlink">
    <!-- Generator: Sketch 48.2 (47327) - http://www.bohemiancoding.com/sketch -->
    <title>bell</title>
    <desc>Created with Sketch.</desc>
    <defs></defs>
    <g id="Page-1" stroke="none" stroke-width="1" fill="none" fill-rule="evenodd">
        <g id="bell" transform="translate(46.709970, 33.918241) rotate(28.000000) translate(-46.709970, -33.918241) translate(7.709970, -0.748426)" fill="#5C96BE" fill-rule="nonzero">
            <path d="M77.1585199,59.3156122 C62.5305505,59.3156122 60.6015875,45.6521243 58.6726245,32.4708771 C56.5829146,18.1644016 54.6539516,4.8224075 38.57926,4.8224075 C22.5045683,4.8224075 20.5756053,18.3251485 18.4858954,32.4708771 C16.5569324,45.6521243 14.6279694,59.3156122 0,59.3156122 L0,55.1361924 C10.2878027,55.1361924 12.2167657,46.4558589 14.3064756,31.9886364 C16.2354386,18.0036547 18.8073892,0.642987666 38.57926,0.642987666 C58.3511307,0.642987666 60.9230814,18.0036547 62.8520444,31.9886364 C64.9417543,46.4558589 66.8707173,55.1361924 77.1585199,55.1361924 L77.1585199,59.3156122" id="Fill-114"></path>
            <path d="M38.57926,68.3174395 C32.4708771,68.3174395 27.3269758,63.3342851 27.3269758,57.0651554 L31.5063956,57.0651554 C31.5063956,60.9230814 34.5605871,63.9772728 38.4185131,63.9772728 C42.276439,63.9772728 45.3306305,60.9230814 45.3306305,57.0651554 L49.5100503,57.0651554 C49.8315441,63.3342851 44.6876428,68.3174395 38.57926,68.3174395" id="Fill-115"></path>
            <polygon id="Fill-116" points="0 54.9754455 77.1585199 54.9754455 77.1585199 59.4763591 0 59.4763591"></polygon>
        </g>
    </g>
</svg>