<?xml version="1.0" encoding="UTF-8"?>
<svg width="78px" height="67px" viewBox="0 0 78 67" version="1.1" xmlns="http://www.w3.org/2000/svg" xmlns:xlink="http://www.w3.org/1999/xlink">
    <g id="Page-1" stroke="none" stroke-width="1" fill="none" fill-rule="evenodd">
        <g id="Icons" fill="#7CB1D6" fill-rule="nonzero">
            <path d="M72.4285714,0 L5.57142857,0 C2.49408482,0 0,2.49408482 0,5.57142857 L0,61.2857143 C0,64.363058 2.49408482,66.8571429 5.57142857,66.8571429 L72.4285714,66.8571429 C75.5059152,66.8571429 78,64.363058 78,61.2857143 L78,5.57142857 C78,2.49408482 75.5059152,0 72.4285714,0 Z M11.1428571,39 L22.2857143,27.8571429 L11.1428571,16.7142857 L16.7142857,11.1428571 L33.4285714,27.8571429 L16.7142857,44.5714286 L11.1428571,39 Z M55.7142857,44.5714286 L33.4285714,44.5714286 L33.4285714,39 L55.7142857,39 L55.7142857,44.5714286 Z" id="terminal"></path>
        </g>
    </g>
</svg>