<?xml version="1.0" encoding="UTF-8"?>
<svg width="74px" height="78px" viewBox="0 0 74 78" version="1.1" xmlns="http://www.w3.org/2000/svg" xmlns:xlink="http://www.w3.org/1999/xlink">
    <!-- Generator: Sketch 48.2 (47327) - http://www.bohemiancoding.com/sketch -->
    <title>home</title>
    <desc>Created with Sketch.</desc>
    <defs></defs>
    <g id="Page-1" stroke="none" stroke-width="1" fill="none" fill-rule="evenodd">
        <path d="M-2,38.1829362 L-1.98561702,38.1829362 L-1.98561702,38.1691064 L-2,38.1829362 Z M73.4818723,36.7169787 C73.4818723,36.2910213 73.2993191,35.908766 73.0094468,35.6426809 L37.8441702,0.462468085 C37.583617,0.18587234 37.2179574,0.0110638298 36.8102553,0 L36.8102553,0.0525531915 C36.4025532,0.0625106383 36.0368936,0.23787234 35.7763404,0.514468085 L0.61106383,35.6924681 C0.321744681,35.9574468 0.138638298,36.3419149 0.138638298,36.7656596 C0.138638298,37.5771915 0.795829787,38.231617 1.60459574,38.231617 L9.93953191,38.231617 L9.93953191,45.1625532 L9.93953191,77.0424255 L29.344383,77.0424255 L29.344383,54.654766 C29.344383,53.8321702 30.0098723,53.1633617 30.8313617,53.1633617 L42.7642553,53.1633617 C43.5885106,53.1633617 44.2562128,53.8321702 44.2562128,54.654766 L44.2562128,77.0468511 L63.676,77.0468511 L63.676,45.1664255 L63.676,38.194 L63.676,38.1829362 L72.0109362,38.1829362 C72.8257872,38.1829362 73.4818723,37.5274043 73.4818723,36.7169787 Z M75.6210638,38.2338298 L75.6061277,38.22 L75.6061277,38.2338298 L75.6210638,38.2338298 Z" id="home" fill="#87B2CF" fill-rule="nonzero"></path>
    </g>
</svg>