<?xml version="1.0" encoding="UTF-8"?>
<svg width="28px" height="28px" viewBox="0 0 28 28" version="1.1" xmlns="http://www.w3.org/2000/svg" xmlns:xlink="http://www.w3.org/1999/xlink">
    <!-- Generator: Sketch 48.2 (47327) - http://www.bohemiancoding.com/sketch -->
    <title>Key_icon</title>
    <desc>Created with Sketch.</desc>
    <defs></defs>
    <g id="UC01_1_Home_page" stroke="none" stroke-width="1" fill="none" fill-rule="evenodd" transform="translate(-818.000000, -16.000000)">
        <g id="Header">
            <g id="Key" transform="translate(818.000000, 16.000000)">
                <g id="Key_icon">
                    <g>
                        <circle id="Oval" fill="#DFEAFF" cx="14" cy="14" r="14"></circle>
                        <path d="M17.4504079,17.5434588 C19.1320835,17.5434588 20.4953508,16.2003131 20.4953508,14.5434588 C20.4953508,12.8866046 19.1320835,11.5434588 17.4504079,11.5434588 C15.7687324,11.5434588 14.4054651,12.8866046 14.4054651,14.5434588 C14.4054651,16.2003131 15.7687324,17.5434588 17.4504079,17.5434588 Z M12.9021456,15.0752898 L9.35190489,15.2613501 L6.12678191,15.4303716 L5.88794633,15.4428884 C5.4225947,15.4672765 5.02558224,15.1098049 5.0011942,14.6444532 C4.97680615,14.1791016 5.33427777,13.7820891 5.79962941,13.7577011 L13.0077763,13.3799381 C13.5130616,11.4365507 15.3025475,9.99999655 17.432585,9.99999655 C19.9550983,9.99999655 21.9999993,12.0147152 21.9999993,14.4999966 C21.9999993,16.9852779 19.9550983,18.9999966 17.432585,18.9999966 C15.1078985,18.9999966 13.1888487,17.288893 12.9021456,15.0752898 Z M10.4203616,14.5650376 L10.5989329,17.1187256 C10.627827,17.5319302 10.3162818,17.8903219 9.90307719,17.919216 L9.90307719,17.919216 C9.48987264,17.9481101 9.13148088,17.6365649 9.1025868,17.2233603 L8.92401554,14.6696723 C8.89512146,14.2564678 9.20666666,13.898076 9.61987122,13.869182 L9.61987122,13.869182 C10.0330758,13.8402879 10.3914675,14.1518331 10.4203616,14.5650376 Z M8.11978216,14.4288722 L8.22755193,15.9700517 C8.25644601,16.3832563 7.94490081,16.741648 7.53169625,16.7705421 L7.53169625,16.7705421 C7.11849169,16.7994362 6.76009993,16.487891 6.73120585,16.0746864 L6.62343609,14.5335069 C6.59454201,14.1203024 6.90608721,13.7619106 7.31929177,13.7330166 L7.31929177,13.7330166 C7.73249633,13.7041225 8.09088808,14.0156677 8.11978216,14.4288722 Z" id="key_icon" fill="#4686FF" fill-rule="nonzero" transform="translate(13.500008, 14.499997) rotate(-23.000000) translate(-13.500008, -14.499997) "></path>
                    </g>
                </g>
            </g>
        </g>
    </g>
</svg>