<?xml version="1.0" encoding="UTF-8"?>
<svg width="21px" height="23px" viewBox="0 0 21 23" version="1.1" xmlns="http://www.w3.org/2000/svg" xmlns:xlink="http://www.w3.org/1999/xlink">
    <!-- Generator: Sketch 48.2 (47327) - http://www.bohemiancoding.com/sketch -->
    <title>notification_icon</title>
    <desc>Created with Sketch.</desc>
    <defs></defs>
    <g id="UC01_1_Home_page" stroke="none" stroke-width="1" fill="none" fill-rule="evenodd" transform="translate(-982.000000, -18.000000)">
        <g id="Header" fill="#B2BCC9">
            <g id="notification_icon" transform="translate(981.000000, 18.000000)">
                <g>
                    <rect id="Path" opacity="0" x="0" y="0" width="23" height="23"></rect>
                    <path d="M19.4926436,11.8976716 L19.4926455,9.27919805 C19.4784211,5.63642684 16.934976,2.47700519 13.3963137,1.64492548 L12.2613673,1.45666504 L12.2613673,1.01136731 C12.2613673,0.590875754 11.9204916,0.25 11.5,0.25 C11.0795084,0.25 10.7386327,0.590875754 10.7386327,1.01136731 L10.7386327,1.45666504 L9.65732697,1.58920876 C6.01483095,2.38938843 3.43925152,5.59619954 3.48207226,9.27822186 L3.48207034,11.8986521 C3.47611918,13.416092 3.12137947,14.912389 2.44566963,16.272678 L1.33084254,18.5724828 C1.21237252,18.8044377 1.22477428,19.0801597 1.36368117,19.3009709 C1.50327054,19.522867 1.75067214,19.6575428 2.0184315,19.6557037 L7.80767374,19.6557037 L7.85051617,19.8525329 C8.2182853,21.5421593 9.73325892,22.75 11.4873579,22.75 C13.2414569,22.75 14.7564305,21.5421593 15.1241996,19.8525329 L15.1670421,19.6557037 L15.3684799,19.6557037 L20.9832912,19.6557096 C21.2493279,19.6575428 21.4967295,19.522867 21.6363188,19.3009709 C21.7752257,19.0801597 21.7876275,18.8044377 21.6678118,18.5698087 L20.5300675,16.2747603 C19.8533208,14.9123233 19.4985965,13.4160587 19.4926436,11.8976716 Z M11.50294,21.3032548 C10.6248029,21.2929963 9.84085524,20.773648 9.50032851,19.979254 L9.35094081,19.6307565 L13.6490592,19.6307565 L13.4996715,19.979254 C13.1591448,20.773648 12.3751971,21.2929963 11.50294,21.3032548 Z M3.4136182,17.7719784 L3.8424081,16.9258542 C4.61800904,15.3593715 5.02403866,13.6400561 5.03009106,11.8976716 L5.03009994,9.28032941 C5.00543057,6.35413462 7.02107382,3.79560324 9.95766486,3.09080243 C10.6057585,2.97293196 11.0998711,2.91436452 11.4400024,2.9151001 C11.7982191,2.91587479 12.3516286,2.97670765 13.100231,3.09759867 C15.9883596,3.78513187 18.0169457,6.34624817 17.9951931,9.27822186 L17.9951916,11.8968034 C18.0012455,13.6400561 18.4072751,15.3593715 19.1818349,16.9237756 L19.7956216,18.1349853 L3.22966259,18.1349853 L3.4136182,17.7719784 Z" id="Shape" fill-rule="nonzero"></path>
                </g>
            </g>
        </g>
    </g>
</svg>