<?xml version="1.0" encoding="UTF-8"?>
<svg width="72px" height="72px" viewBox="0 0 72 72" version="1.1" xmlns="http://www.w3.org/2000/svg" xmlns:xlink="http://www.w3.org/1999/xlink">
    <!-- Generator: Sketch 48.2 (47327) - http://www.bohemiancoding.com/sketch -->
    <title>purse</title>
    <desc>Created with Sketch.</desc>
    <defs></defs>
    <g id="Page-1" stroke="none" stroke-width="1" fill="none" fill-rule="evenodd">
        <path d="M63.4,16.3 L59.1,16.3 L50.2,1 C49.9,0.5 49.4,0.2 48.9,0.1 C48.4,0 47.8,0.1 47.3,0.4 L37.1,7.4 L31.6,0.7 C31.3,0.3 30.8,0 30.2,0 C29.6,0 29.1,0.2 28.7,0.6 L13.2,16.3 L8.6,16.3 C4.3,16.3 0.8,19.8 0.8,24.1 L0.8,64.1 C0.8,68.4 4.3,71.9 8.6,71.9 L63.4,71.9 C67.7,71.9 71.2,68.4 71.2,64.1 L71.2,24.1 C71.2,19.8 67.7,16.3 63.4,16.3 Z M67.2,51.9 L54.5,51.9 C50.2,51.9 46.7,48.4 46.7,44.1 C46.7,39.8 50.2,36.3 54.5,36.3 L67.2,36.3 L67.2,51.9 Z M47.8,4.9 L54.5,16.3 L44.3,16.3 L39.6,10.6 L47.8,4.9 Z M30,5 L39.2,16.3 L18.8,16.3 L30,5 Z M63.4,68 L8.6,68 C6.5,68 4.8,66.3 4.8,64.2 L4.8,24.2 C4.8,22.1 6.5,20.4 8.6,20.4 L63.4,20.4 C65.5,20.4 67.2,22.1 67.2,24.2 L67.2,32.4 L54.5,32.4 C48,32.4 42.7,37.7 42.7,44.2 C42.7,50.7 48,55.9 54.5,55.9 L67.2,55.9 L67.2,64.1 C67.2,66.3 65.5,68 63.4,68 Z" id="purse" fill="#99C0DD" fill-rule="nonzero"></path>
    </g>
</svg>