<?xml version="1.0" encoding="UTF-8"?>
<svg width="23px" height="23px" viewBox="0 0 23 23" version="1.1" xmlns="http://www.w3.org/2000/svg" xmlns:xlink="http://www.w3.org/1999/xlink">
    <!-- Generator: Sketch 48.2 (47327) - http://www.bohemiancoding.com/sketch -->
    <title>settings_icon</title>
    <desc>Created with Sketch.</desc>
    <defs></defs>
    <g id="UC01_1_Home_page" stroke="none" stroke-width="1" fill="none" fill-rule="evenodd" transform="translate(-940.000000, -18.000000)">
        <g id="Header">
            <g id="settings_icon" transform="translate(940.000000, 17.000000)">
                <g transform="translate(0.000000, 0.700001)">
                    <rect id="Rectangle-2" fill="#BBD4E6" opacity="0" x="0" y="0.299999237" width="23" height="23"></rect>
                    <path d="M13.8194154,22.5875 C13.8194154,22.9558145 13.479262,23.25 13.1101253,23.25 L9.43580376,23.25 C9.06666699,23.25 8.72651357,22.9558145 8.72700245,22.603127 L8.59994902,20.5745072 C8.04705876,20.3966073 7.56439789,20.1983587 7.12595487,19.9593996 L5.5897789,21.3209833 C5.31725561,21.52495 4.91969638,21.52495 4.6203806,21.2977943 L2.00242652,18.6852943 C1.72083347,18.4042879 1.72083347,17.9707121 1.99233858,17.7003823 L3.34307238,16.1839725 C3.10332216,15.7457524 2.90446669,15.2632677 2.72602063,14.7104622 L0.663361169,14.5416667 C0.29484933,14.5416667 0,14.2021647 0,13.8333333 L0,10.1666667 C0,9.79783533 0.29484933,9.45833333 0.64779896,9.45881817 L2.68118148,9.33199652 C2.8593561,8.78057461 3.05790067,8.29914161 3.29717869,7.86179623 L1.93324007,6.32936686 C1.72858595,6.05706318 1.72858595,5.65960349 1.95649751,5.36053907 L4.57445158,2.74803907 C4.85575638,2.46732031 5.28933756,2.46732031 5.5599475,2.73797579 L7.08009019,4.08639866 C7.51941258,3.84696667 8.00313078,3.64840683 8.55741236,3.47023517 L8.72651357,1.4125 C8.72651357,1.04418547 9.06666699,0.75 9.43580376,0.75 L13.1101253,0.75 C13.479262,0.75 13.8194154,1.04418547 13.8189266,1.396873 L13.94598,3.42549283 C14.4988703,3.60339274 14.9815311,3.80164132 15.4199741,4.04060039 L16.9561501,2.67901665 C17.2286734,2.47505 17.6262326,2.47505 17.9255484,2.70220573 L20.5435025,5.31470573 C20.8250955,5.59571214 20.8250955,6.02928786 20.5535904,6.29961772 L19.2028566,7.81602747 C19.4421245,8.25336592 19.640662,8.73479099 19.818831,9.28620197 L21.8366388,9.4125 C22.2051507,9.4125 22.5,9.75200199 22.5,10.1208333 L22.5,13.7875 C22.5,14.1563313 22.2051507,14.4958333 21.852201,14.4953485 L19.8188185,14.6221701 C19.6406439,15.1735921 19.4420993,15.6550251 19.2028213,16.0923704 L20.5667599,17.6247998 C20.7714141,17.8971035 20.7714141,18.2945632 20.5435025,18.5936276 L17.9255484,21.2061276 C17.6442436,21.4868464 17.2106624,21.4868464 16.9400525,21.2161909 L15.4199098,19.867768 C14.9815907,20.1066532 14.4990783,20.3048528 13.9463839,20.4827105 L13.8194154,22.5875 Z M12.4166997,21.8333333 L12.5386221,19.975 C12.5386221,19.6602917 12.7728531,19.38405 13.0955393,19.3199347 C13.7675249,19.1522883 14.47699,18.8553905 15.1571722,18.4679667 C15.4414639,18.326117 15.7816278,18.346085 15.9855024,18.5501815 L17.4170751,19.8155043 L19.0589367,18.1770633 L17.802009,16.7602943 C17.5868596,16.5455931 17.5668093,16.2054492 17.722506,15.8979444 C18.091976,15.3244107 18.3683938,14.6403227 18.5628178,13.864247 C18.630587,13.593735 18.8765832,13.386018 19.2024487,13.3088611 L21.0814196,13.1865748 L21.0814196,10.8591995 L19.2186848,10.7375 C18.9038278,10.7375 18.6271145,10.5038458 18.5628178,10.1815864 C18.3948511,9.51111942 18.0973721,8.80322421 17.7091588,8.12449001 C17.5668093,7.84038412 17.5868596,7.50024026 17.7916259,7.29654753 L19.0589008,5.86873418 L17.4170393,4.2302933 L15.9965296,5.48529427 C15.7816278,5.69974835 15.4414639,5.71971631 15.1337992,5.56458938 C14.5589829,5.19583447 13.8733544,4.91994733 13.0955393,4.72589866 C12.8247682,4.65834692 12.6165675,4.41280419 12.5388491,4.08148416 L12.4571974,2.16666667 L10.1292293,2.16666667 L10.0073069,4.025 C10.0073069,4.33970831 9.77307595,4.61594999 9.45038973,4.68006532 C8.77840411,4.84771173 8.06893904,5.14460952 7.38875682,5.53203326 C7.10446511,5.67388298 6.76430118,5.65391502 6.56042662,5.4498185 L5.1288539,4.18449568 L3.48699231,5.82293672 L4.74392003,7.23970573 C4.95906945,7.45440692 4.97911968,7.79455079 4.82342301,8.10205558 C4.45395304,8.67558929 4.17753521,9.35967734 3.98311124,10.135753 C3.91534206,10.406265 3.66934585,10.613982 3.34313625,10.691161 L1.41858038,10.8137491 L1.41858038,13.1408005 L3.28131524,13.2625 C3.59617219,13.2625 3.87288546,13.4961542 3.93718222,13.8184136 C4.10514889,14.4888806 4.40262792,15.1967758 4.79084116,15.87551 C4.93319067,16.1596159 4.91314043,16.4997597 4.70837409,16.7034525 L3.44109925,18.1312658 L5.08296066,19.7697067 L6.50347037,18.5147057 C6.71837216,18.3002516 7.0585361,18.2802837 7.36620079,18.4354106 C7.94101707,18.8041655 8.62664557,19.0800527 9.40446071,19.2741013 C9.67523178,19.3416531 9.88343245,19.5871958 9.96086803,19.9132085 L10.0836851,21.8333333 L12.4166997,21.8333333 Z" id="Shape" fill="#B2BCC9" fill-rule="nonzero"></path>
                    <path d="M11.2999878,15.5 C9.36195544,15.5 7.79998779,13.9380324 7.79998779,12 C7.79998779,10.0619676 9.36195544,8.5 11.2999878,8.5 C13.2380201,8.5 14.7999878,10.0619676 14.7999878,12 C14.7999878,13.9380324 13.2380201,15.5 11.2999878,15.5 Z M11.2999878,10 C10.1879583,10 9.29998779,10.8879705 9.29998779,12 C9.29998779,13.1120295 10.1879583,14 11.2999878,14 C12.4120173,14 13.2999878,13.1120295 13.2999878,12 C13.2999878,10.8879705 12.4120173,10 11.2999878,10 Z" id="Shape" fill="#B2BCC9" fill-rule="nonzero"></path>
                </g>
            </g>
        </g>
    </g>
</svg>