<?xml version="1.0" encoding="UTF-8"?>
<svg width="78px" height="78px" viewBox="0 0 78 78" version="1.1" xmlns="http://www.w3.org/2000/svg" xmlns:xlink="http://www.w3.org/1999/xlink">
    <g id="Page-1" stroke="none" stroke-width="1" fill="none" fill-rule="evenodd">
        <g id="user">
            <path d="M39,0 C17.55,0 0,17.55 0,39 C0,60.45 17.55,78 39,78 C60.45,78 78,60.45 78,39 C78,17.55 60.45,0 39,0 Z" id="oval" fill="#DBEBF6"></path>
            <path d="M39,0 C17.55,0 0,17.55 0,39 C0,60.45 17.55,78 39,78 C60.45,78 78,60.45 78,39 C78,17.55 60.45,0 39,0 Z M39,20 C46.15,20 52,25.72 52,33 C52,40.28 46.15,46 39,46 C31.85,46 26,40.28 26,33 C26,25.72 31.85,20 39,20 Z M60.7460201,63.0454545 C55.2594682,67.8181818 47.513748,71 39.4452893,71 C31.3768307,71 23.6311104,67.8181818 18.1445586,63.0454545 C16.8536052,61.7727273 16.5308668,59.8636364 17.8218202,58.5909091 C21.371942,54.4545455 26.2130172,51.5909091 31.3768307,50 C33.9587375,51.2727273 36.5406442,51.9090909 39.4452893,51.9090909 C42.3499344,51.9090909 44.9318412,51.2727273 47.513748,50 C53.0002998,51.5909091 57.5186367,54.4545455 61.0687585,58.5909091 C62.3597118,59.8636364 62.3597118,61.7727273 60.7460201,63.0454545 Z" fill="#99C0DD" fill-rule="nonzero"></path>
        </g>
    </g>
</svg>