<svg id="Layer_1" data-name="Layer 1" xmlns="http://www.w3.org/2000/svg" xmlns:xlink="http://www.w3.org/1999/xlink" viewBox="0 0 128 128"><defs><style>.cls-1{fill:url(#radial-gradient);}.cls-2{fill:url(#radial-gradient-2);}</style><radialGradient id="radial-gradient" cx="133.82" cy="2.5" r="207.45" gradientUnits="userSpaceOnUse"><stop offset="0" stop-color="#00ffd1"/><stop offset="0.39" stop-color="#259ee2"/><stop offset="1" stop-color="#6200ff"/></radialGradient><radialGradient id="radial-gradient-2" cx="116.71" cy="9.97" r="215.65" gradientUnits="userSpaceOnUse"><stop offset="0" stop-color="#fff"/><stop offset="0.13" stop-color="#fff" stop-opacity="0.98"/><stop offset="0.26" stop-color="#fff" stop-opacity="0.94"/><stop offset="0.38" stop-color="#fff" stop-opacity="0.86"/><stop offset="0.5" stop-color="#fff" stop-opacity="0.76"/><stop offset="0.63" stop-color="#fff" stop-opacity="0.62"/><stop offset="0.75" stop-color="#fff" stop-opacity="0.45"/><stop offset="0.87" stop-color="#fff" stop-opacity="0.25"/><stop offset="0.99" stop-color="#fff" stop-opacity="0.02"/><stop offset="1" stop-color="#fff" stop-opacity="0"/></radialGradient></defs><title>tic-tac-toe_color</title><rect class="cls-1" width="128" height="128" rx="20" ry="20"/><path class="cls-2" d="M43.89,62.47A18.62,18.62,0,1,1,62.51,43.85,18.64,18.64,0,0,1,43.89,62.47Zm0-30.84A12.22,12.22,0,1,0,56.11,43.85,12.23,12.23,0,0,0,43.89,31.63Z"/><path class="cls-2" d="M68.69,62.47A3.21,3.21,0,0,1,66.43,57L97.27,26.16a3.2,3.2,0,0,1,4.53,4.53L71,61.53A3.24,3.24,0,0,1,68.69,62.47Z"/><path class="cls-2" d="M99.53,62.47a3.23,3.23,0,0,1-2.26-.94L66.43,30.69A3.2,3.2,0,1,1,71,26.16L101.8,57a3.2,3.2,0,0,1,0,4.53A3.24,3.24,0,0,1,99.53,62.47Z"/><path class="cls-2" d="M84.11,102.77a18.62,18.62,0,1,1,18.62-18.62A18.64,18.64,0,0,1,84.11,102.77Zm0-30.84A12.22,12.22,0,1,0,96.33,84.15,12.24,12.24,0,0,0,84.11,71.93Z"/><path class="cls-2" d="M28.47,102.77a3.2,3.2,0,0,1-2.27-5.46L57,66.47A3.2,3.2,0,0,1,61.57,71L30.73,101.84A3.22,3.22,0,0,1,28.47,102.77Z"/><path class="cls-2" d="M59.31,102.77a3.23,3.23,0,0,1-2.27-.93L26.2,71a3.2,3.2,0,0,1,4.53-4.53L61.57,97.31a3.2,3.2,0,0,1-2.26,5.46Z"/></svg>