<?xml version="1.0" encoding="UTF-8"?>
<svg width="18px" height="18px" viewBox="0 0 18 18" version="1.1" xmlns="http://www.w3.org/2000/svg" xmlns:xlink="http://www.w3.org/1999/xlink">
    <!-- Generator: Sketch 48.2 (47327) - http://www.bohemiancoding.com/sketch -->
    <title>Donations _rating_icon</title>
    <desc>Created with Sketch.</desc>
    <defs></defs>
    <g id="Donations-_rating_icon" stroke="none" stroke-width="1" fill="none" fill-rule="evenodd">
        <g fill="#4686FF" fill-rule="nonzero">
            <path d="M9,17 C13.418278,17 17,13.418278 17,9 C17,4.581722 13.418278,1 9,1 C4.581722,1 1,4.581722 1,9 C1,13.418278 4.581722,17 9,17 Z M9,18 C4.02943725,18 0,13.9705627 0,9 C0,4.02943725 4.02943725,0 9,0 C13.9705627,0 18,4.02943725 18,9 C18,13.9705627 13.9705627,18 9,18 Z M9,15.2608696 C12.4577828,15.2608696 15.2608696,12.4577828 15.2608696,9 C15.2608696,5.54221722 12.4577828,2.73913043 9,2.73913043 C5.54221722,2.73913043 2.73913043,5.54221722 2.73913043,9 C2.73913043,12.4577828 5.54221722,15.2608696 9,15.2608696 Z M9,11.6565071 L5.3199532,14.0651499 L6.47351166,9.82090582 L3.0455592,7.0652849 L7.43854433,6.85084065 L9,2.73913043 L10.5614557,6.85084065 L14.9544408,7.0652849 L11.5264883,9.82090582 L12.6800468,14.0651499 L9,11.6565071 Z"></path>
        </g>
    </g>
</svg>