<svg id="Layer_1" data-name="Layer 1" xmlns="http://www.w3.org/2000/svg" xmlns:xlink="http://www.w3.org/1999/xlink" viewBox="0 0 128 128"><defs><style>.cls-1{fill:url(#radial-gradient);}.cls-2{fill:url(#radial-gradient-2);}.cls-3{fill:url(#radial-gradient-3);}.cls-4{fill:url(#radial-gradient-4);}.cls-5{fill:url(#radial-gradient-5);}</style><radialGradient id="radial-gradient" cx="121.51" cy="-1.12" r="211.18" gradientUnits="userSpaceOnUse"><stop offset="0" stop-color="#4aff26"/><stop offset="0.15" stop-color="#3fec2b"/><stop offset="1" stop-color="#008547"/></radialGradient><radialGradient id="radial-gradient-2" cx="66.63" cy="29.75" r="44.13" gradientUnits="userSpaceOnUse"><stop offset="0" stop-color="#fff"/><stop offset="0.11" stop-color="#fff" stop-opacity="0.97"/><stop offset="0.27" stop-color="#fff" stop-opacity="0.88"/><stop offset="0.47" stop-color="#fff" stop-opacity="0.74"/><stop offset="0.7" stop-color="#fff" stop-opacity="0.55"/><stop offset="0.95" stop-color="#fff" stop-opacity="0.3"/><stop offset="1" stop-color="#fff" stop-opacity="0.25"/></radialGradient><radialGradient id="radial-gradient-3" cx="81.93" cy="41.41" r="86.25" xlink:href="#radial-gradient-2"/><radialGradient id="radial-gradient-4" cx="96.09" cy="53.33" r="28.39" xlink:href="#radial-gradient-2"/><radialGradient id="radial-gradient-5" cx="114.47" cy="52.61" r="61.72" xlink:href="#radial-gradient-2"/></defs><title>contact-list_color</title><rect class="cls-1" width="128" height="128" rx="20" ry="20"/><circle class="cls-2" cx="52.29" cy="45.98" r="15.95"/><path class="cls-3" d="M52.29,53.51c-16,0-29.15,16.11-31.11,36.95a5,5,0,0,0,4.95,5.38H78.45a5,5,0,0,0,5-5.38C81.44,69.62,68.26,53.51,52.29,53.51Z"/><circle class="cls-4" cx="86.86" cy="63.77" r="10.26"/><path class="cls-5" d="M86.86,68.61c-9.69,0-17.78,9.22-19.72,21.52a5,5,0,0,0,4.91,5.71h29.63a5,5,0,0,0,4.91-5.71C104.65,77.83,96.56,68.61,86.86,68.61Z"/></svg>