<svg id="Layer_1" data-name="Layer 1" xmlns="http://www.w3.org/2000/svg" xmlns:xlink="http://www.w3.org/1999/xlink" viewBox="0 0 128 128"><defs><style>.cls-1{fill:url(#radial-gradient);}.cls-2,.cls-20{opacity:0;}.cls-2{fill:url(#radial-gradient-2);}.cls-21,.cls-3{opacity:0.06;}.cls-3{fill:url(#radial-gradient-3);}.cls-22,.cls-4{opacity:0.12;}.cls-4{fill:url(#radial-gradient-4);}.cls-23,.cls-5{opacity:0.18;}.cls-5{fill:url(#radial-gradient-5);}.cls-24,.cls-6{opacity:0.24;}.cls-6{fill:url(#radial-gradient-6);}.cls-25,.cls-7{opacity:0.29;}.cls-7{fill:url(#radial-gradient-7);}.cls-26,.cls-8{opacity:0.35;}.cls-8{fill:url(#radial-gradient-8);}.cls-27,.cls-9{opacity:0.41;}.cls-9{fill:url(#radial-gradient-9);}.cls-10,.cls-28{opacity:0.47;}.cls-10{fill:url(#radial-gradient-10);}.cls-11,.cls-29{opacity:0.53;}.cls-11{fill:url(#radial-gradient-11);}.cls-12,.cls-30{opacity:0.59;}.cls-12{fill:url(#radial-gradient-12);}.cls-13,.cls-31{opacity:0.65;}.cls-13{fill:url(#radial-gradient-13);}.cls-14,.cls-32{opacity:0.71;}.cls-14{fill:url(#radial-gradient-14);}.cls-15,.cls-33{opacity:0.76;}.cls-15{fill:url(#radial-gradient-15);}.cls-16,.cls-34{opacity:0.82;}.cls-16{fill:url(#radial-gradient-16);}.cls-17,.cls-35{opacity:0.88;}.cls-17{fill:url(#radial-gradient-17);}.cls-18,.cls-36{opacity:0.94;}.cls-18{fill:url(#radial-gradient-18);}.cls-19{fill:url(#radial-gradient-19);}.cls-20{fill:url(#radial-gradient-20);}.cls-21{fill:url(#radial-gradient-21);}.cls-22{fill:url(#radial-gradient-22);}.cls-23{fill:url(#radial-gradient-23);}.cls-24{fill:url(#radial-gradient-24);}.cls-25{fill:url(#radial-gradient-25);}.cls-26{fill:url(#radial-gradient-26);}.cls-27{fill:url(#radial-gradient-27);}.cls-28{fill:url(#radial-gradient-28);}.cls-29{fill:url(#radial-gradient-29);}.cls-30{fill:url(#radial-gradient-30);}.cls-31{fill:url(#radial-gradient-31);}.cls-32{fill:url(#radial-gradient-32);}.cls-33{fill:url(#radial-gradient-33);}.cls-34{fill:url(#radial-gradient-34);}.cls-35{fill:url(#radial-gradient-35);}.cls-36{fill:url(#radial-gradient-36);}.cls-37{fill:url(#radial-gradient-37);}</style><radialGradient id="radial-gradient" cx="133.91" cy="-7.5" r="238.4" gradientUnits="userSpaceOnUse"><stop offset="0" stop-color="#ff00c1"/><stop offset="0.91" stop-color="#4000bb"/><stop offset="1" stop-color="#2d00ba"/></radialGradient><radialGradient id="radial-gradient-2" cx="35.05" cy="60.44" r="21.35" gradientUnits="userSpaceOnUse"><stop offset="0" stop-color="#fff"/><stop offset="0.39" stop-color="#fff" stop-opacity="0.62"/><stop offset="1" stop-color="#fff" stop-opacity="0"/></radialGradient><radialGradient id="radial-gradient-3" cx="35.92" cy="56.16" r="26.33" xlink:href="#radial-gradient-2"/><radialGradient id="radial-gradient-4" cx="37.44" cy="51.95" r="30.76" xlink:href="#radial-gradient-2"/><radialGradient id="radial-gradient-5" cx="39.55" cy="47.84" r="34.64" xlink:href="#radial-gradient-2"/><radialGradient id="radial-gradient-6" cx="42.19" cy="43.9" r="37.99" xlink:href="#radial-gradient-2"/><radialGradient id="radial-gradient-7" cx="45.31" cy="40.17" r="40.82" xlink:href="#radial-gradient-2"/><radialGradient id="radial-gradient-8" cx="48.84" cy="36.71" r="43.14" xlink:href="#radial-gradient-2"/><radialGradient id="radial-gradient-9" cx="52.71" cy="33.56" r="44.96" xlink:href="#radial-gradient-2"/><radialGradient id="radial-gradient-10" cx="56.88" cy="30.78" r="46.28" xlink:href="#radial-gradient-2"/><radialGradient id="radial-gradient-11" cx="61.27" cy="28.43" r="47.12" xlink:href="#radial-gradient-2"/><radialGradient id="radial-gradient-12" cx="65.83" cy="26.54" r="47.48" xlink:href="#radial-gradient-2"/><radialGradient id="radial-gradient-13" cx="70.49" cy="25.18" r="47.39" xlink:href="#radial-gradient-2"/><radialGradient id="radial-gradient-14" cx="75.2" cy="24.4" r="46.83" xlink:href="#radial-gradient-2"/><radialGradient id="radial-gradient-15" cx="79.89" cy="24.24" r="45.84" xlink:href="#radial-gradient-2"/><radialGradient id="radial-gradient-16" cx="84.5" cy="24.77" r="44.4" xlink:href="#radial-gradient-2"/><radialGradient id="radial-gradient-17" cx="88.98" cy="26.02" r="42.55" xlink:href="#radial-gradient-2"/><radialGradient id="radial-gradient-18" cx="93.26" cy="28.06" r="40.27" xlink:href="#radial-gradient-2"/><radialGradient id="radial-gradient-19" cx="97.27" cy="30.93" r="37.59" xlink:href="#radial-gradient-2"/><radialGradient id="radial-gradient-20" cx="102.61" cy="60.35" r="11.65" xlink:href="#radial-gradient-2"/><radialGradient id="radial-gradient-21" cx="102.67" cy="62.78" r="14.5" xlink:href="#radial-gradient-2"/><radialGradient id="radial-gradient-22" cx="102.07" cy="65.23" r="17.13" xlink:href="#radial-gradient-2"/><radialGradient id="radial-gradient-23" cx="100.86" cy="67.66" r="19.52" xlink:href="#radial-gradient-2"/><radialGradient id="radial-gradient-24" cx="99.11" cy="70.02" r="21.7" xlink:href="#radial-gradient-2"/><radialGradient id="radial-gradient-25" cx="96.87" cy="72.25" r="23.66" xlink:href="#radial-gradient-2"/><radialGradient id="radial-gradient-26" cx="94.21" cy="74.3" r="25.42" xlink:href="#radial-gradient-2"/><radialGradient id="radial-gradient-27" cx="91.18" cy="76.12" r="26.97" xlink:href="#radial-gradient-2"/><radialGradient id="radial-gradient-28" cx="87.85" cy="77.66" r="28.34" xlink:href="#radial-gradient-2"/><radialGradient id="radial-gradient-29" cx="84.28" cy="78.86" r="29.51" xlink:href="#radial-gradient-2"/><radialGradient id="radial-gradient-30" cx="80.53" cy="79.68" r="30.51" xlink:href="#radial-gradient-2"/><radialGradient id="radial-gradient-31" cx="76.66" cy="80.07" r="31.34" xlink:href="#radial-gradient-2"/><radialGradient id="radial-gradient-32" cx="72.73" cy="79.96" r="32" xlink:href="#radial-gradient-2"/><radialGradient id="radial-gradient-33" cx="68.8" cy="79.32" r="32.51" xlink:href="#radial-gradient-2"/><radialGradient id="radial-gradient-34" cx="64.94" cy="78.08" r="32.86" xlink:href="#radial-gradient-2"/><radialGradient id="radial-gradient-35" cx="61.2" cy="76.2" r="33.07" xlink:href="#radial-gradient-2"/><radialGradient id="radial-gradient-36" cx="57.65" cy="73.63" r="33.14" xlink:href="#radial-gradient-2"/><radialGradient id="radial-gradient-37" cx="54.34" cy="70.31" r="33.08" xlink:href="#radial-gradient-2"/></defs><title>exchange_color</title><rect class="cls-1" width="128" height="128" rx="20" ry="20"/><circle class="cls-2" cx="33.22" cy="63.27" r="2.2"/><circle class="cls-3" cx="33.57" cy="59.77" r="2.84"/><circle class="cls-4" cx="34.59" cy="56.32" r="3.49"/><circle class="cls-5" cx="36.21" cy="52.96" r="4.13"/><circle class="cls-6" cx="38.37" cy="49.73" r="4.77"/><circle class="cls-7" cx="41.01" cy="46.7" r="5.41"/><circle class="cls-8" cx="44.07" cy="43.92" r="6.06"/><circle class="cls-9" cx="47.49" cy="41.43" r="6.7"/><circle class="cls-10" cx="51.21" cy="39.3" r="7.34"/><circle class="cls-11" cx="55.16" cy="37.56" r="7.99"/><circle class="cls-12" cx="59.29" cy="36.27" r="8.63"/><circle class="cls-13" cx="63.54" cy="35.49" r="9.27"/><circle class="cls-14" cx="67.84" cy="35.26" r="9.92"/><circle class="cls-15" cx="72.13" cy="35.64" r="10.56"/><circle class="cls-16" cx="76.35" cy="36.68" r="11.2"/><circle class="cls-17" cx="80.45" cy="38.43" r="11.84"/><circle class="cls-18" cx="84.35" cy="40.95" r="12.49"/><circle class="cls-19" cx="88.01" cy="44.27" r="13.13"/><circle class="cls-20" cx="101.14" cy="64.51" r="2.2"/><circle class="cls-21" cx="100.78" cy="68" r="2.84"/><circle class="cls-22" cx="99.77" cy="71.46" r="3.49"/><circle class="cls-23" cx="98.15" cy="74.82" r="4.13"/><circle class="cls-24" cx="95.99" cy="78.04" r="4.77"/><circle class="cls-25" cx="93.35" cy="81.07" r="5.41"/><circle class="cls-26" cx="90.29" cy="83.86" r="6.06"/><circle class="cls-27" cx="86.87" cy="86.34" r="6.7"/><circle class="cls-28" cx="83.15" cy="88.48" r="7.34"/><circle class="cls-29" cx="79.2" cy="90.22" r="7.99"/><circle class="cls-30" cx="75.07" cy="91.51" r="8.63"/><circle class="cls-31" cx="70.82" cy="92.29" r="9.27"/><circle class="cls-32" cx="66.52" cy="92.51" r="9.92"/><circle class="cls-33" cx="62.23" cy="92.13" r="10.56"/><circle class="cls-34" cx="58.01" cy="91.09" r="11.2"/><circle class="cls-35" cx="53.91" cy="89.34" r="11.84"/><circle class="cls-36" cx="50.01" cy="86.83" r="12.49"/><circle class="cls-37" cx="46.35" cy="83.5" r="13.13"/></svg>