<?xml version="1.0" encoding="utf-8"?>
<!-- Generator: Adobe Illustrator 22.1.0, SVG Export Plug-In . SVG Version: 6.00 Build 0)  -->
<svg version="1.1" id="Слой_1" xmlns="http://www.w3.org/2000/svg" xmlns:xlink="http://www.w3.org/1999/xlink" x="0px" y="0px"
	 viewBox="0 0 800 800" style="enable-background:new 0 0 800 800;" xml:space="preserve">
<style type="text/css">
	.st0{fill:url(#SVGID_1_);}
	.st1{fill:#FFFFFF;}
</style>
<linearGradient id="SVGID_1_" gradientUnits="userSpaceOnUse" x1="158.5617" y1="816.0227" x2="646.3658" y2="-18.4974" gradientTransform="matrix(1.0037 0 0 1.0162 -0.1931 -5.0064)">
	<stop  offset="0" style="stop-color:#E66170"/>
	<stop  offset="0.3863" style="stop-color:#EE526D"/>
	<stop  offset="1" style="stop-color:#FF3366"/>
</linearGradient>
<path class="st0" d="M673.1,790H134.4C67.9,790,14,736.7,14,671V129.4c0-65.7,53.9-119,120.4-119h538.7c66.5,0,120.4,53.3,120.4,119
	V671C793.5,736.7,739.6,790,673.1,790z"/>
<g>
	<path class="st1" d="M504.4,177.8H342.2c-94.8,0-171.6,76.8-171.6,171.6v259.7c0,28.2,16.3,34.9,36.2,15l23.2-23.2
		c23.9-23.9,56.3-37.3,90.1-37.3h184.4c94.8,0,171.6-76.8,171.6-171.6v-42.6C676,254.7,599.1,177.8,504.4,177.8z"/>
	<path class="st1" d="M206.8,628.5l23.2-23.2c23.9-23.9,56.3-37.3,90.1-37.3h184.4c94.8,0,171.6-76.8,171.6-171.6v-42.6
		c0-55.6-26.5-105-67.4-136.3c-264.9,13.3-438,165.1-438,396.1C170.6,641.7,186.8,648.4,206.8,628.5z"/>
</g>
</svg>
